<?xml version="1.0" standalone="no"?>
<!DOCTYPE svg PUBLIC "-//W3C//DTD SVG 20010904//EN"
 "http://www.w3.org/TR/2001/REC-SVG-20010904/DTD/svg10.dtd">
<svg version="1.0" xmlns="http://www.w3.org/2000/svg"
 width="700.000000pt" height="700.000000pt" viewBox="0 0 700.000000 700.000000"
 preserveAspectRatio="xMidYMid meet">
<metadata>
Created by potrace 1.14, written by Peter Selinger 2001-2017
</metadata>
<g transform="translate(0.000000,700.000000) scale(0.100000,-0.100000)"
fill="#000000" stroke="none">
<path d="M1299 5548 c0 -13 -2 -31 -4 -40 -2 -9 -6 -36 -9 -60 -28 -201 -77
-330 -153 -399 -70 -65 -222 -113 -422 -135 -25 -2 -47 -7 -50 -9 -10 -11 -3
-12 132 -31 75 -10 199 -44 253 -68 29 -13 72 -44 96 -69 52 -53 71 -77 62
-77 -3 0 -2 -6 3 -12 19 -25 49 -127 67 -224 17 -89 22 -130 25 -183 0 -13 4
-22 7 -19 6 7 11 34 19 118 3 30 8 63 11 72 3 10 7 30 10 45 32 180 96 284
212 346 29 15 52 25 52 22 0 -3 8 -1 18 4 34 18 291 65 345 63 9 0 15 3 12 8
-3 5 -13 8 -23 8 -27 -2 -110 11 -247 38 -100 20 -214 74 -256 122 -34 39 -89
147 -92 181 -1 12 -5 21 -10 21 -4 0 -6 3 -4 8 3 4 -1 35 -8 70 -14 65 -27
161 -28 200 -1 12 -5 22 -9 22 -4 0 -8 -10 -9 -22z"/>
<path d="M3728 5476 c-1 -2 -43 -6 -93 -9 -297 -17 -591 -148 -809 -361 -171
-167 -269 -328 -341 -562 -67 -214 -98 -244 -334 -318 -534 -168 -898 -658
-903 -1215 -1 -93 2 -137 17 -241 20 -146 104 -355 198 -495 85 -127 226 -271
342 -348 160 -108 366 -190 530 -212 28 -4 61 -9 75 -11 32 -5 237 -5 270 0
14 2 48 8 75 12 28 4 55 9 60 10 6 2 21 5 35 8 60 14 162 51 247 91 229 108
429 290 555 505 73 125 89 163 153 369 37 120 109 185 249 225 374 109 651
331 818 657 69 134 98 216 129 369 14 70 18 310 7 400 -62 479 -408 899 -870
1053 -100 34 -213 57 -307 63 -42 3 -81 7 -88 9 -6 2 -13 2 -15 1z"/>
<path d="M635 4900 c-3 -5 -1 -10 4 -10 6 0 11 5 11 10 0 6 -2 10 -4 10 -3 0
-8 -4 -11 -10z"/>
<path d="M5366 3914 c-11 -10 -16 -35 -17 -72 0 -31 -2 -64 -3 -72 -2 -8 -6
-40 -10 -70 -29 -239 -156 -491 -341 -675 -147 -147 -323 -251 -525 -310 -118
-34 -173 -62 -226 -112 -54 -52 -87 -111 -114 -203 -74 -257 -166 -413 -343
-583 -215 -205 -475 -315 -789 -332 -80 -4 -88 -8 -88 -40 0 -38 31 -48 129
-41 107 8 136 12 235 37 433 109 782 441 915 869 48 154 61 180 114 232 45 43
62 51 201 97 234 77 385 165 536 313 241 235 376 535 393 872 3 57 1 72 -15
88 -22 22 -32 23 -52 2z"/>
<path d="M5690 2870 c-1 -8 -4 -28 -6 -45 -2 -16 -8 -60 -14 -97 -7 -37 -13
-78 -15 -90 -2 -13 -10 -50 -19 -83 -35 -129 -96 -214 -186 -260 -38 -19 -65
-29 -145 -51 -5 -2 -23 -6 -40 -9 -99 -19 -136 -25 -190 -31 -70 -8 -55 -17
45 -29 36 -4 72 -9 80 -11 8 -2 31 -6 50 -9 136 -24 232 -68 291 -134 54 -59
98 -165 115 -276 4 -27 9 -57 10 -65 2 -8 6 -33 9 -55 13 -95 24 -132 26 -84
0 13 2 33 4 44 3 11 7 43 10 70 3 28 8 57 10 65 2 8 7 29 10 46 11 68 49 171
78 214 52 75 114 117 224 149 71 21 87 25 193 41 36 6 76 12 90 14 14 3 31 5
39 5 28 2 5 10 -44 16 -237 28 -378 73 -457 145 -68 62 -118 201 -145 400 -11
84 -21 135 -23 120z"/>
</g>
</svg>
