<svg width="40" height="40" viewBox="0 0 40 40" fill="none" xmlns="http://www.w3.org/2000/svg">
<g clip-path="url(#clip0_54701_28282)">
<circle cx="20" cy="20" r="20" fill="#0055D5"/>
<path fill-rule="evenodd" clip-rule="evenodd" d="M20 10.5C14.48 10.5 10 14.98 10 20.5C10 26.02 14.48 30.5 20 30.5C25.52 30.5 30 26.02 30 20.5C30 14.98 25.52 10.5 20 10.5ZM26.36 25.33C24.93 23.59 21.46 23 20 23C18.54 23 15.07 23.59 13.64 25.33C12.62 23.99 12 22.32 12 20.5C12 16.09 15.59 12.5 20 12.5C24.41 12.5 28 16.09 28 20.5C28 22.32 27.38 23.99 26.36 25.33ZM16.5 18C16.5 16.06 18.06 14.5 20 14.5C21.94 14.5 23.5 16.06 23.5 18C23.5 19.94 21.94 21.5 20 21.5C18.06 21.5 16.5 19.94 16.5 18Z" fill="white"/>
</g>
<defs>
<clipPath id="clip0_54701_28282">
<rect width="40" height="40" fill="white"/>
</clipPath>
</defs>
</svg>
