<svg width="30" height="30" viewBox="0 0 30 30" fill="none" xmlns="http://www.w3.org/2000/svg">
<path fill-rule="evenodd" clip-rule="evenodd" d="M17.95 9.55C17.6625 8.925 17.5 8.2375 17.5 7.5C17.5 4.7375 19.7375 2.5 22.5 2.5C25.2625 2.5 27.5 4.7375 27.5 7.5C27.5 10.2625 25.2625 12.5 22.5 12.5C21.7625 12.5 21.075 12.3375 20.45 12.05L17.5 15L20.45 17.95C21.075 17.6625 21.7625 17.5 22.5 17.5C25.2625 17.5 27.5 19.7375 27.5 22.5C27.5 25.2625 25.2625 27.5 22.5 27.5C19.7375 27.5 17.5 25.2625 17.5 22.5C17.5 21.7625 17.6625 21.075 17.95 20.45L15 17.5L6.25 26.25H2.5V25L17.95 9.55ZM22.5 10C23.875 10 25 8.8875 25 7.5C25 6.1125 23.875 5 22.5 5C21.125 5 20 6.1125 20 7.5C20 8.8875 21.125 10 22.5 10ZM25 22.5C25 23.8875 23.875 25 22.5 25C21.125 25 20 23.8875 20 22.5C20 21.1125 21.125 20 22.5 20C23.875 20 25 21.1125 25 22.5ZM15 15.625C15.35 15.625 15.625 15.35 15.625 15C15.625 14.65 15.35 14.375 15 14.375C14.65 14.375 14.375 14.65 14.375 15C14.375 15.35 14.65 15.625 15 15.625ZM13.75 11.25L6.25 3.75H2.5V5L11.25 13.75L13.75 11.25Z" fill="#176BFF"/>
</svg>
