<svg width="470" height="70" viewBox="0 0 470 70" fill="none" xmlns="http://www.w3.org/2000/svg">
<path d="M463 0H7C3.15 0 0 3.15 0 7V70L14 56H463C466.85 56 470 52.85 470 49V7C470 3.15 466.85 0 463 0Z" fill="#0055D5"/>
<path d="M50.82 15.81C54.96 15.81 57.99 19.65 57.99 25.71C57.99 31.83 54.96 35.67 50.82 35.67C46.65 35.67 43.65 31.83 43.65 25.71C43.65 19.65 46.65 15.81 50.82 15.81ZM50.82 19.44C48.81 19.44 47.46 21.63 47.46 25.71C47.46 29.85 48.81 32.07 50.82 32.07C52.86 32.07 54.18 29.85 54.18 25.71C54.18 21.63 52.86 19.44 50.82 19.44ZM62.55 13.86H66.51V41.73H62.55V13.86ZM56.82 23.88H64.23V27.09H56.82V23.88ZM75.6577 38.01H95.6077V41.19H75.6577V38.01ZM75.6577 32.31H79.6777V39.99H75.6577V32.31ZM90.9577 13.92H94.9177V34.02H90.9577V13.92ZM87.2977 21.21H94.3777V24.39H87.2977V21.21ZM71.7877 26.94H73.1977C75.5377 26.94 77.1877 26.88 79.2277 26.46L79.5277 29.67C77.3677 30.12 75.6877 30.12 73.1977 30.12H71.7877V26.94ZM71.7877 15.99H79.0777V19.17H75.7177V27.54H71.7877V15.99ZM80.3977 26.94H81.8977C85.4077 26.94 86.9377 26.88 88.7377 26.43L89.0677 29.64C87.1477 30.06 85.5577 30.12 81.8977 30.12H80.3977V26.94ZM80.3977 15.99H88.1077V19.17H84.2977V27.51H80.3977V15.99ZM113.906 18.75H117.116V19.77C117.116 24.6 114.656 28.95 109.346 30.48L107.486 27.36C111.956 26.1 113.906 22.92 113.906 19.77V18.75ZM114.656 18.75H117.896V19.77C117.896 22.62 119.876 25.53 124.346 26.7L122.546 29.79C117.206 28.38 114.656 24.33 114.656 19.77V18.75ZM108.446 16.77H123.356V19.89H108.446V16.77ZM113.906 13.8H117.896V18H113.906V13.8ZM122.576 21.3H127.886V24.51H122.576V21.3ZM126.926 13.89H130.916V30.66H126.926V13.89ZM121.496 31.14C127.376 31.14 131.006 33.06 131.006 36.39C131.006 39.72 127.376 41.67 121.496 41.67C115.616 41.67 111.986 39.72 111.986 36.39C111.986 33.06 115.616 31.14 121.496 31.14ZM121.496 34.17C117.866 34.17 115.976 34.89 115.976 36.39C115.976 37.89 117.866 38.64 121.496 38.64C125.156 38.64 127.046 37.89 127.046 36.39C127.046 34.89 125.156 34.17 121.496 34.17ZM135.894 35.16H161.034V38.43H135.894V35.16ZM146.334 28.98H150.294V36.03H146.334V28.98ZM146.184 15.42H149.664V17.43C149.664 23.34 145.374 28.56 138.114 29.88L136.464 26.55C142.794 25.53 146.184 21.27 146.184 17.43V15.42ZM146.964 15.42H150.444V17.43C150.444 21.36 153.834 25.53 160.194 26.55L158.544 29.88C151.254 28.53 146.964 23.43 146.964 17.43V15.42ZM164.061 26.34H189.231V29.25H164.061V26.34ZM166.881 30.63H186.231V37.23H170.901V39.6H166.941V34.71H182.301V33.33H166.881V30.63ZM166.941 38.76H187.011V41.46H166.941V38.76ZM167.151 14.37H186.171V20.91H171.141V23.19H167.181V18.42H182.241V17.04H167.151V14.37ZM167.181 22.35H186.681V25.05H167.181V22.35ZM218.15 13.89H222.11V41.67H218.15V13.89ZM221.21 24.72H226.13V28.05H221.21V24.72ZM200.21 18H216.38V21.18H200.21V18ZM208.34 22.74C212.39 22.74 215.39 25.5 215.39 29.37C215.39 33.24 212.39 36 208.34 36C204.29 36 201.29 33.24 201.29 29.37C201.29 25.5 204.29 22.74 208.34 22.74ZM208.34 25.98C206.45 25.98 205.1 27.24 205.1 29.37C205.1 31.5 206.45 32.76 208.34 32.76C210.23 32.76 211.58 31.5 211.58 29.37C211.58 27.24 210.23 25.98 208.34 25.98ZM206.33 14.34H210.32V19.2H206.33V14.34ZM247.607 13.89H251.627V27.93H247.607V13.89ZM233.087 29.16H251.627V36.69H237.047V39.48H233.147V33.81H247.667V32.19H233.087V29.16ZM233.147 38.4H252.317V41.49H233.147V38.4ZM235.037 14.52H238.337V16.62C238.337 21.75 235.757 26.4 230.327 28.05L228.407 24.9C233.057 23.49 235.037 20.01 235.037 16.62V14.52ZM235.847 14.52H239.117V16.62C239.117 19.92 241.067 23.16 245.597 24.45L243.677 27.54C238.337 25.98 235.847 21.63 235.847 16.62V14.52ZM275.836 20.01H280.456V23.22H275.836V20.01ZM275.836 28.59H280.456V31.83H275.836V28.59ZM284.866 13.89H288.676V41.67H284.866V13.89ZM279.316 14.31H283.036V40.41H279.316V14.31ZM271.036 15.84C274.726 15.84 277.096 19.65 277.096 25.92C277.096 32.22 274.726 36.03 271.036 36.03C267.376 36.03 265.036 32.22 265.036 25.92C265.036 19.65 267.376 15.84 271.036 15.84ZM271.036 19.59C269.506 19.59 268.606 21.69 268.606 25.92C268.606 30.18 269.506 32.25 271.036 32.25C272.596 32.25 273.496 30.18 273.496 25.92C273.496 21.69 272.596 19.59 271.036 19.59ZM308.053 20.61H313.333V23.85H308.053V20.61ZM312.253 13.89H316.243V30.39H312.253V13.89ZM306.823 30.99C312.703 30.99 316.333 33 316.333 36.36C316.333 39.75 312.703 41.7 306.823 41.7C300.943 41.7 297.313 39.75 297.313 36.36C297.313 33 300.943 30.99 306.823 30.99ZM306.823 34.02C303.223 34.02 301.303 34.77 301.303 36.36C301.303 37.92 303.223 38.67 306.823 38.67C310.453 38.67 312.373 37.92 312.373 36.36C312.373 34.77 310.453 34.02 306.823 34.02ZM299.413 16.68H302.653V18.42C302.653 23.73 300.193 28.59 294.883 30.39L292.843 27.24C297.433 25.68 299.413 21.99 299.413 18.42V16.68ZM300.253 16.68H303.463V18.42C303.463 21.69 305.353 25.08 309.733 26.55L307.783 29.7C302.623 27.99 300.253 23.37 300.253 18.42V16.68ZM293.923 15.57H308.863V18.75H293.923V15.57ZM340.271 13.92H344.291V33.87H340.271V13.92ZM325.781 38.01H344.981V41.19H325.781V38.01ZM325.781 31.86H329.771V39.3H325.781V31.86ZM329.171 15.66C333.431 15.66 336.701 18.6 336.701 22.71C336.701 26.79 333.431 29.76 329.171 29.76C324.911 29.76 321.611 26.79 321.611 22.71C321.611 18.6 324.911 15.66 329.171 15.66ZM329.171 19.11C327.101 19.11 325.511 20.43 325.511 22.71C325.511 24.96 327.101 26.28 329.171 26.28C331.211 26.28 332.801 24.96 332.801 22.71C332.801 20.43 331.211 19.11 329.171 19.11ZM367.149 13.86H371.169V41.64H367.149V13.86ZM370.119 24.48H375.009V27.75H370.119V24.48ZM359.859 16.74H363.759C363.759 25.08 360.579 32.22 351.339 36.87L349.119 33.84C356.409 30.06 359.859 24.96 359.859 17.43V16.74ZM350.649 16.74H361.899V19.95H350.649V16.74ZM383.136 27.99H387.096V35.79H383.136V27.99ZM393.216 27.99H397.206V35.79H393.216V27.99ZM377.616 35.22H402.756V38.46H377.616V35.22ZM390.156 15.24C396.126 15.24 400.536 18.18 400.536 22.71C400.536 27.24 396.126 30.15 390.156 30.15C384.156 30.15 379.776 27.24 379.776 22.71C379.776 18.18 384.156 15.24 390.156 15.24ZM390.156 18.36C386.286 18.36 383.706 19.95 383.706 22.71C383.706 25.44 386.286 27.06 390.156 27.06C394.026 27.06 396.606 25.44 396.606 22.71C396.606 19.95 394.026 18.36 390.156 18.36ZM421.283 32.5986H417.782C417.791 31.71 417.865 30.9482 418.001 30.3135C418.148 29.6787 418.387 29.1074 418.719 28.5996C419.051 28.082 419.5 27.5547 420.067 27.0176C420.516 26.5977 420.916 26.2021 421.268 25.8311C421.629 25.4502 421.913 25.0547 422.118 24.6445C422.323 24.2246 422.425 23.751 422.425 23.2236C422.425 22.6279 422.328 22.1299 422.132 21.7295C421.947 21.3291 421.668 21.0264 421.297 20.8213C420.936 20.6064 420.482 20.499 419.935 20.499C419.486 20.499 419.061 20.5918 418.661 20.7773C418.26 20.9629 417.938 21.251 417.694 21.6416C417.45 22.0225 417.318 22.5205 417.298 23.1357H413.416C413.446 21.8564 413.748 20.792 414.325 19.9424C414.901 19.083 415.677 18.4434 416.654 18.0234C417.63 17.5938 418.724 17.3789 419.935 17.3789C421.273 17.3789 422.415 17.6035 423.363 18.0527C424.32 18.4922 425.047 19.1367 425.545 19.9863C426.053 20.8359 426.307 21.8613 426.307 23.0625C426.307 23.9219 426.141 24.6934 425.809 25.377C425.477 26.0508 425.038 26.6807 424.491 27.2666C423.944 27.8525 423.353 28.4434 422.718 29.0391C422.162 29.5371 421.786 30.0693 421.59 30.6357C421.395 31.2021 421.292 31.8564 421.283 32.5986ZM417.415 37.1543C417.415 36.5684 417.611 36.0801 418.001 35.6895C418.402 35.2988 418.939 35.1035 419.613 35.1035C420.287 35.1035 420.819 35.2988 421.209 35.6895C421.61 36.0801 421.81 36.5684 421.81 37.1543C421.81 37.7207 421.61 38.1992 421.209 38.5898C420.819 38.9805 420.287 39.1758 419.613 39.1758C418.939 39.1758 418.402 38.9805 418.001 38.5898C417.611 38.1992 417.415 37.7207 417.415 37.1543Z" fill="white"/>
</svg>
