<svg width="512" height="225" viewBox="0 0 512 225" fill="none" xmlns="http://www.w3.org/2000/svg">
<path d="M112.64 75.2C113.767 72.4267 115.76 70.26 118.62 68.7C121.48 67.0533 124.427 66.3167 127.46 66.49C130.493 66.5767 133.353 67.53 136.04 69.35C138.813 71.17 140.677 73.51 141.63 76.37C139.723 73.9433 137.47 71.95 134.87 70.39C132.357 68.7433 129.887 67.8767 127.46 67.79C125.033 67.7033 122.477 68.3533 119.79 69.74C117.103 71.1267 114.72 72.9467 112.64 75.2ZM159.83 72.6C162.083 70.1733 164.943 68.7433 168.41 68.31C171.877 67.79 175.083 68.18 178.03 69.48C181.063 70.6933 183.62 72.73 185.7 75.59C187.78 78.45 188.733 81.4833 188.56 84.69C187.607 81.57 186.133 78.71 184.14 76.11C182.147 73.51 179.98 71.69 177.64 70.65C175.213 69.61 172.353 69.3067 169.06 69.74C165.767 70.1733 162.69 71.1267 159.83 72.6ZM70.39 104.71C67.3567 103.497 65.0167 101.33 63.37 98.21C61.6367 95.09 60.8133 91.8833 60.9 88.59C60.9867 85.2967 62.0267 82.1767 64.02 79.23C65.9267 76.2833 68.44 74.29 71.56 73.25C68.96 75.2433 66.7933 77.67 65.06 80.53C63.24 83.3033 62.2867 85.99 62.2 88.59C62.1133 91.2767 62.85 94.0933 64.41 97.04C65.97 99.9 67.9633 102.457 70.39 104.71ZM153.98 87.94C154.24 85.6 155.193 83.39 156.84 81.31C158.487 79.1433 160.48 77.7567 162.82 77.15C165.073 76.5433 167.457 76.8033 169.97 77.93C172.483 78.97 174.39 80.4433 175.69 82.35C173.783 80.9633 171.747 80.14 169.58 79.88C167.413 79.62 165.42 79.7067 163.6 80.14C161.78 80.66 159.96 81.57 158.14 82.87C156.407 84.17 155.02 85.86 153.98 87.94ZM83.39 82.35C84.7767 81.05 86.5533 80.14 88.72 79.62C90.9733 79.1 92.9667 79.2733 94.7 80.14C96.4333 81.0067 97.7333 82.48 98.6 84.56C99.5533 86.5533 99.9 88.5033 99.64 90.41C99.2067 88.59 98.3833 87.0733 97.17 85.86C95.9567 84.56 94.6567 83.5633 93.27 82.87C91.8833 82.1767 90.3233 81.7433 88.59 81.57C86.8567 81.31 85.1233 81.57 83.39 82.35ZM126.94 82.35C128.24 81.6567 129.8 81.31 131.62 81.31C133.44 81.2233 134.87 81.6567 135.91 82.61C137.037 83.5633 137.687 84.95 137.86 86.77C138.12 88.5033 137.99 90.0633 137.47 91.45C137.47 89.9767 137.08 88.72 136.3 87.68C135.607 86.64 134.827 85.73 133.96 84.95C133.007 84.17 131.967 83.4767 130.84 82.87C129.713 82.2633 128.413 82.09 126.94 82.35ZM114.59 94.31C113.81 92.9233 113.42 91.2333 113.42 89.24C113.42 87.16 113.94 85.47 114.98 84.17C116.107 82.9567 117.667 82.22 119.66 81.96C121.653 81.6133 123.43 81.7433 124.99 82.35C123.343 82.35 121.87 82.74 120.57 83.52C119.27 84.3 118.187 85.21 117.32 86.25C116.453 87.29 115.717 88.5033 115.11 89.89C114.503 91.19 114.33 92.6633 114.59 94.31ZM177.77 82.35C179.07 83.13 180.197 84.3433 181.15 85.99C182.19 87.6367 182.537 89.24 182.19 90.8C181.93 92.2733 181.02 93.6167 179.46 94.83C177.987 95.9567 176.47 96.6067 174.91 96.78C176.297 96.0867 177.293 95.1333 177.9 93.92C178.507 92.62 178.94 91.3633 179.2 90.15C179.373 88.9367 179.417 87.6367 179.33 86.25C179.243 84.8633 178.723 83.5633 177.77 82.35ZM78.45 97.82C76.9767 96.9533 75.72 95.6533 74.68 93.92C73.7267 92.1867 73.38 90.4967 73.64 88.85C73.9867 87.29 74.94 85.9033 76.5 84.69C78.1467 83.39 79.75 82.61 81.31 82.35C79.9233 83.13 78.8833 84.2133 78.19 85.6C77.4967 86.9 77.02 88.2 76.76 89.5C76.5 90.8 76.4133 92.1867 76.5 93.66C76.6733 95.1333 77.3233 96.52 78.45 97.82ZM137.99 93.4C140.243 93.14 142.453 93.5733 144.62 94.7C146.873 91.7533 149.82 90.15 153.46 89.89C151.9 90.5833 150.557 91.4933 149.43 92.62C148.39 93.7467 147.567 94.96 146.96 96.26C147.913 97.04 148.607 97.95 149.04 98.99C149.993 100.81 150.21 102.933 149.69 105.36C149.17 107.7 148.173 109.607 146.7 111.08C146.96 110.473 147.177 109.91 147.35 109.39C145.703 108.003 144.447 106.183 143.58 103.93C142.713 101.677 142.583 99.5533 143.19 97.56C143.277 97.2133 143.407 96.8667 143.58 96.52C141.933 94.96 140.07 93.92 137.99 93.4ZM109.65 110.04L109.39 109.91C109.043 110.343 108.697 110.733 108.35 111.08C108.61 110.56 108.827 110.04 109 109.52C107.787 108.393 106.833 106.963 106.14 105.23C105.533 103.41 105.49 101.763 106.01 100.29C106.27 99.4233 106.703 98.6 107.31 97.82C106.617 96.6933 105.663 95.6533 104.45 94.7C103.237 93.66 101.85 92.88 100.29 92.36C103.843 92.1867 106.92 93.4 109.52 96C111.167 94.96 112.857 94.3967 114.59 94.31C113.03 95.0033 111.73 96.0867 110.69 97.56C110.95 97.9067 111.167 98.2967 111.34 98.73C112.12 100.377 112.293 102.24 111.86 104.32C111.427 106.4 110.647 108.22 109.52 109.78C109.52 109.867 109.563 109.953 109.65 110.04ZM174.26 98.86C176.167 100.333 177.597 102.413 178.55 105.1C179.503 107.7 179.633 110.17 178.94 112.51C178.16 114.763 176.6 116.713 174.26 118.36C172.007 120.007 169.667 120.873 167.24 120.96C169.493 120.007 171.357 118.663 172.83 116.93C174.303 115.197 175.343 113.377 175.95 111.47C176.557 109.65 176.73 107.613 176.47 105.36C176.297 103.02 175.56 100.853 174.26 98.86ZM146.31 100.29C146.137 100.03 146.007 99.77 145.92 99.51C145.573 101.07 145.487 102.717 145.66 104.45C145.833 106.183 146.397 107.743 147.35 109.13C147.783 107.57 147.87 106.01 147.61 104.45C147.35 102.89 146.917 101.503 146.31 100.29ZM85.34 119.92C83.1733 119.833 81.0067 119.097 78.84 117.71C76.76 116.237 75.3733 114.417 74.68 112.25C73.9867 110.17 74.0733 107.917 74.94 105.49C75.8933 103.063 77.2367 101.157 78.97 99.77C77.8433 101.677 77.1933 103.67 77.02 105.75C76.9333 107.743 77.15 109.607 77.67 111.34C78.19 112.987 79.1 114.633 80.4 116.28C81.7 117.927 83.3467 119.14 85.34 119.92ZM108.87 101.2C108.523 102.413 108.307 103.713 108.22 105.1C108.22 106.4 108.523 107.743 109.13 109.13C109.563 107.743 109.737 106.357 109.65 104.97C109.563 103.583 109.347 102.327 109 101.2H108.87ZM92.49 142.67C90.2367 142.583 88.0267 141.803 85.86 140.33C83.6933 138.77 82.2633 136.907 81.57 134.74C80.8767 132.573 80.9633 130.277 81.83 127.85C82.7833 125.337 84.17 123.387 85.99 122C84.7767 123.907 84.0833 125.943 83.91 128.11C83.8233 130.19 84.04 132.097 84.56 133.83C85.08 135.563 85.99 137.253 87.29 138.9C88.6767 140.547 90.41 141.803 92.49 142.67ZM166.59 122.91C168.583 124.557 170.013 126.767 170.88 129.54C171.747 132.313 171.79 134.913 171.01 137.34C170.143 139.767 168.497 141.803 166.07 143.45C163.643 145.01 161.173 145.833 158.66 145.92C161 144.967 162.95 143.623 164.51 141.89C166.157 140.07 167.327 138.207 168.02 136.3C168.713 134.393 168.973 132.227 168.8 129.8C168.627 127.373 167.89 125.077 166.59 122.91ZM122.65 123.82C124.123 125.033 125.25 126.767 126.03 129.02C126.81 131.273 126.897 133.31 126.29 135.13C125.597 137.037 124.253 138.597 122.26 139.81C120.267 141.023 118.273 141.63 116.28 141.63C118.1 140.937 119.573 139.897 120.7 138.51C121.913 137.123 122.78 135.65 123.3 134.09C123.82 132.617 124.08 130.97 124.08 129.15C124.08 127.243 123.603 125.467 122.65 123.82ZM136.95 142.15C135.13 142.15 133.267 141.587 131.36 140.46C129.453 139.333 128.197 137.903 127.59 136.17C126.983 134.437 127.07 132.573 127.85 130.58C128.63 128.5 129.713 126.897 131.1 125.77C130.233 127.33 129.8 128.933 129.8 130.58C129.8 132.227 130.06 133.743 130.58 135.13C131.013 136.517 131.75 137.903 132.79 139.29C133.83 140.59 135.217 141.543 136.95 142.15ZM173.22 134.35C174.78 136.777 175.387 139.507 175.04 142.54C174.78 145.487 173.783 148.087 172.05 150.34C170.317 152.593 168.02 154.283 165.16 155.41C162.387 156.537 159.657 156.667 156.97 155.8C159.83 155.627 162.517 154.977 165.03 153.85C167.63 152.81 169.623 151.38 171.01 149.56C172.397 147.74 173.263 145.443 173.61 142.67C173.957 139.897 173.827 137.123 173.22 134.35ZM115.5 143.58C114.807 145.833 113.42 147.827 111.34 149.56C109.26 151.293 107.05 152.247 104.71 152.42C102.37 152.507 100.073 151.77 97.82 150.21C95.6533 148.65 94.1367 146.787 93.27 144.62C94.83 146.353 96.65 147.567 98.73 148.26C100.81 149.04 102.76 149.387 104.58 149.3C106.487 149.213 108.437 148.737 110.43 147.87C112.423 146.917 114.113 145.487 115.5 143.58ZM156.45 146.05C155.583 147.87 154.153 149.387 152.16 150.6C150.253 151.9 148.303 152.463 146.31 152.29C144.317 152.117 142.497 151.163 140.85 149.43C139.203 147.783 138.12 146.007 137.6 144.1C138.727 145.747 140.113 146.96 141.76 147.74C143.407 148.52 145.01 148.997 146.57 149.17C148.217 149.343 149.907 149.213 151.64 148.78C153.46 148.347 155.063 147.437 156.45 146.05ZM119.92 153.72C118.707 156.84 116.54 159.267 113.42 161C110.3 162.82 107.093 163.73 103.8 163.73C100.42 163.643 97.2133 162.647 94.18 160.74C91.1467 158.92 89.0667 156.45 87.94 153.33C90.1067 155.843 92.62 157.967 95.48 159.7C98.34 161.433 101.113 162.343 103.8 162.43C106.487 162.43 109.26 161.607 112.12 159.96C115.067 158.313 117.667 156.233 119.92 153.72ZM181.038 86.51C180.605 83.4767 181.212 80.53 182.858 77.67C184.505 74.81 186.715 72.6867 189.488 71.3C192.175 69.8267 195.165 69.1767 198.458 69.35C201.752 69.4367 204.525 70.52 206.778 72.6C203.918 71.4733 200.928 70.8667 197.808 70.78C194.775 70.6933 192.175 71.2133 190.008 72.34C187.842 73.5533 185.935 75.46 184.288 78.06C182.728 80.66 181.645 83.4767 181.038 86.51ZM223.808 86.9C224.068 84.82 224.978 82.8267 226.538 80.92C228.098 78.9267 229.918 77.67 231.998 77.15C234.078 76.7167 236.245 77.02 238.498 78.06C240.752 79.1 242.442 80.53 243.568 82.35C241.835 81.05 239.972 80.27 237.978 80.01C236.072 79.75 234.295 79.8367 232.648 80.27C231.002 80.6167 229.355 81.3533 227.708 82.48C226.062 83.52 224.762 84.9933 223.808 86.9ZM190.788 89.11C190.702 87.2033 191.178 85.2967 192.218 83.39C193.345 81.3967 194.775 80.0533 196.508 79.36C198.242 78.58 200.148 78.5367 202.228 79.23C204.395 79.9233 206.085 80.9633 207.298 82.35C205.652 81.4833 203.962 81.0933 202.228 81.18C200.582 81.2667 199.065 81.6133 197.678 82.22C196.292 82.74 194.948 83.5633 193.648 84.69C192.348 85.8167 191.395 87.29 190.788 89.11ZM209.378 82.35C210.418 81.31 211.805 80.53 213.538 80.01C215.272 79.4033 216.788 79.4033 218.088 80.01C219.475 80.6167 220.515 81.7433 221.208 83.39C221.902 85.0367 222.205 86.5967 222.118 88.07C221.685 86.6833 220.948 85.6 219.908 84.82C218.955 83.9533 217.915 83.3033 216.788 82.87C215.748 82.35 214.578 82.0033 213.278 81.83C211.978 81.57 210.678 81.7433 209.378 82.35ZM255.658 79.75C258.778 81.2233 261.118 83.65 262.678 87.03C264.325 90.41 264.975 93.8333 264.628 97.3C264.282 100.767 262.982 104.017 260.728 107.05C258.562 109.997 255.832 111.903 252.538 112.77C255.398 110.777 257.825 108.393 259.818 105.62C261.898 102.76 263.068 99.9433 263.328 97.17C263.588 94.3967 262.982 91.45 261.508 88.33C260.035 85.1233 258.085 82.2633 255.658 79.75ZM246.688 85.47C248.508 86.1633 250.155 87.42 251.628 89.24C253.102 90.9733 253.838 92.8367 253.838 94.83C253.838 96.8233 253.102 98.73 251.628 100.55C250.155 102.283 248.508 103.497 246.688 104.19C248.162 102.89 249.202 101.417 249.808 99.77C250.415 98.0367 250.718 96.39 250.718 94.83C250.718 93.27 250.415 91.6667 249.808 90.02C249.202 88.2867 248.162 86.77 246.688 85.47ZM181.038 119.66C178.092 118.62 175.795 116.67 174.148 113.81C172.415 110.95 171.548 107.96 171.548 104.84C171.548 101.807 172.415 98.86 174.148 96C175.795 93.14 178.092 91.19 181.038 90.15C178.698 92.1433 176.748 94.4833 175.188 97.17C173.628 99.8567 172.848 102.413 172.848 104.84C172.848 107.353 173.628 109.953 175.188 112.64C176.748 115.327 178.698 117.667 181.038 119.66ZM190.788 107.7C189.142 107.093 187.625 106.01 186.238 104.45C184.938 102.89 184.288 101.2 184.288 99.38C184.288 97.6467 184.938 96 186.238 94.44C187.625 92.88 189.142 91.7967 190.788 91.19C189.488 92.3167 188.578 93.6167 188.058 95.09C187.625 96.5633 187.408 97.9933 187.408 99.38C187.408 100.853 187.625 102.327 188.058 103.8C188.578 105.273 189.488 106.573 190.788 107.7ZM245.128 105.75C244.522 107.483 243.352 109.043 241.618 110.43C239.972 111.817 238.238 112.51 236.418 112.51C234.598 112.51 232.822 111.817 231.088 110.43C229.442 109.043 228.315 107.483 227.708 105.75C228.835 107.137 230.178 108.09 231.738 108.61C233.385 109.13 234.945 109.39 236.418 109.39C237.892 109.39 239.408 109.13 240.968 108.61C242.528 108.09 243.915 107.137 245.128 105.75ZM225.498 106.01C226.972 107.31 228.055 109.087 228.748 111.34C229.442 113.507 229.442 115.5 228.748 117.32C227.968 119.14 226.582 120.613 224.588 121.74C222.595 122.78 220.602 123.3 218.608 123.3C220.428 122.693 221.945 121.74 223.158 120.44C224.372 119.053 225.238 117.623 225.758 116.15C226.365 114.677 226.712 113.073 226.798 111.34C226.885 109.52 226.452 107.743 225.498 106.01ZM190.788 126.42C189.142 125.813 187.625 124.73 186.238 123.17C184.938 121.523 184.288 119.833 184.288 118.1C184.288 116.367 184.938 114.72 186.238 113.16C187.625 111.513 189.142 110.387 190.788 109.78C189.488 110.907 188.578 112.25 188.058 113.81C187.625 115.283 187.408 116.713 187.408 118.1C187.408 119.487 187.625 120.96 188.058 122.52C188.578 123.993 189.488 125.293 190.788 126.42ZM218.608 125.38C220.168 125.9 221.598 126.94 222.898 128.5C224.198 129.973 224.848 131.49 224.848 133.05C224.848 134.697 224.198 136.3 222.898 137.86C221.598 139.333 220.168 140.33 218.608 140.85C219.822 139.81 220.645 138.597 221.078 137.21C221.512 135.737 221.728 134.35 221.728 133.05C221.728 131.75 221.512 130.407 221.078 129.02C220.645 127.633 219.822 126.42 218.608 125.38ZM198.588 146.05C196.508 146.223 194.385 145.747 192.218 144.62C190.138 143.493 188.708 142.02 187.928 140.2C187.148 138.38 187.062 136.343 187.668 134.09C188.275 131.75 189.315 129.887 190.788 128.5C189.922 130.233 189.532 132.053 189.618 133.96C189.792 135.78 190.182 137.427 190.788 138.9C191.482 140.373 192.435 141.803 193.648 143.19C194.948 144.49 196.595 145.443 198.588 146.05ZM228.358 142.41C228.705 145.443 228.012 148.347 226.278 151.12C224.545 153.98 222.292 156.147 219.518 157.62C216.745 159.007 213.712 159.57 210.418 159.31C207.125 159.05 204.352 157.88 202.098 155.8C204.958 157.013 207.905 157.707 210.938 157.88C214.058 158.053 216.745 157.577 218.998 156.45C221.165 155.323 223.072 153.46 224.718 150.86C226.452 148.26 227.665 145.443 228.358 142.41ZM218.608 142.93C218.262 144.837 217.352 146.657 215.878 148.39C214.405 150.123 212.715 151.12 210.808 151.38C208.902 151.727 206.952 151.337 204.958 150.21C202.965 149.083 201.492 147.697 200.538 146.05C202.012 147.263 203.615 148 205.348 148.26C207.082 148.607 208.728 148.65 210.288 148.39C211.762 148.13 213.278 147.567 214.838 146.7C216.398 145.833 217.655 144.577 218.608 142.93ZM258.203 42.96C259.59 39.9267 261.843 37.63 264.963 36.07C268.17 34.51 271.42 33.86 274.713 34.12C278.093 34.38 281.213 35.55 284.073 37.63C286.933 39.71 288.797 42.3533 289.663 45.56C287.757 42.7867 285.417 40.4467 282.643 38.54C279.957 36.6333 277.313 35.5933 274.713 35.42C272.027 35.16 269.167 35.7667 266.133 37.24C263.187 38.6267 260.543 40.5333 258.203 42.96ZM272.503 52.45C273.457 51.4967 274.713 50.76 276.273 50.24C277.833 49.72 279.177 49.72 280.303 50.24C281.517 50.76 282.427 51.8 283.033 53.36C283.64 54.8333 283.9 56.22 283.813 57.52C283.467 56.3067 282.817 55.3967 281.863 54.79C280.91 54.0967 280 53.5333 279.133 53.1C278.18 52.6667 277.14 52.32 276.013 52.06C274.887 51.8 273.717 51.93 272.503 52.45ZM258.723 62.07C258.29 60.4233 258.333 58.56 258.853 56.48C259.373 54.4 260.37 52.84 261.843 51.8C263.317 50.8467 265.093 50.4567 267.173 50.63C269.34 50.8033 271.117 51.41 272.503 52.45C270.857 52.0167 269.253 52.06 267.693 52.58C266.133 53.0133 264.79 53.62 263.663 54.4C262.45 55.2667 261.367 56.35 260.413 57.65C259.46 58.8633 258.897 60.3367 258.723 62.07ZM248.323 86.51C245.463 85.3833 243.21 83.39 241.563 80.53C239.917 77.67 239.137 74.68 239.223 71.56C239.223 68.44 240.133 65.4933 241.953 62.72C243.687 59.9467 246.027 58.04 248.973 57C246.547 58.9933 244.553 61.3333 242.993 64.02C241.347 66.62 240.523 69.1333 240.523 71.56C240.437 74.0733 241.13 76.6733 242.603 79.36C244.077 82.0467 245.983 84.43 248.323 86.51ZM283.813 59.6C284.68 60.9 285.157 62.5033 285.243 64.41C285.33 66.3167 284.897 67.92 283.943 69.22C282.99 70.4333 281.56 71.2133 279.653 71.56C277.747 71.9067 276.057 71.82 274.583 71.3C276.143 71.2133 277.487 70.78 278.613 70C279.74 69.1333 280.693 68.2233 281.473 67.27C282.253 66.23 282.903 65.1033 283.423 63.89C284.03 62.59 284.16 61.16 283.813 59.6ZM272.503 71.3C271.29 72.4267 269.73 73.25 267.823 73.77C265.917 74.2033 264.227 74.03 262.753 73.25C261.28 72.47 260.197 71.17 259.503 69.35C258.81 67.53 258.55 65.7967 258.723 64.15C259.07 65.71 259.763 67.01 260.803 68.05C261.93 69.09 263.057 69.9133 264.183 70.52C265.397 71.1267 266.697 71.56 268.083 71.82C269.557 72.08 271.03 71.9067 272.503 71.3ZM268.473 82.35C269.947 81.1367 271.81 80.3567 274.063 80.01C276.317 79.5767 278.31 79.8367 280.043 80.79C281.69 81.83 282.903 83.4333 283.683 85.6C284.55 87.7667 284.81 89.8033 284.463 91.71C284.117 89.8033 283.337 88.1567 282.123 86.77C280.997 85.3833 279.783 84.3 278.483 83.52C277.097 82.74 275.537 82.1767 273.803 81.83C272.07 81.4833 270.293 81.6567 268.473 82.35ZM258.073 91.19C257.467 90.0633 257.163 88.6767 257.163 87.03C257.163 85.3833 257.597 84.1267 258.463 83.26C259.33 82.3067 260.543 81.7867 262.103 81.7C263.75 81.6133 265.18 81.83 266.393 82.35C265.093 82.2633 263.967 82.5667 263.013 83.26C262.147 83.8667 261.367 84.56 260.673 85.34C259.98 86.12 259.33 86.9867 258.723 87.94C258.117 88.8067 257.9 89.89 258.073 91.19ZM258.073 109.78C256.427 109.173 254.91 108.09 253.523 106.53C252.223 104.883 251.573 103.193 251.573 101.46C251.573 99.7267 252.223 98.08 253.523 96.52C254.91 94.96 256.427 93.8767 258.073 93.27C256.773 94.3967 255.863 95.6967 255.343 97.17C254.91 98.6433 254.693 100.073 254.693 101.46C254.693 102.847 254.91 104.32 255.343 105.88C255.863 107.353 256.773 108.653 258.073 109.78ZM284.463 93.79C286.37 94.4833 288.06 95.7833 289.533 97.69C291.093 99.5967 291.873 101.547 291.873 103.54C291.873 105.62 291.093 107.613 289.533 109.52C288.06 111.427 286.37 112.727 284.463 113.42C286.023 112.12 287.107 110.56 287.713 108.74C288.407 106.92 288.753 105.187 288.753 103.54C288.753 101.893 288.407 100.203 287.713 98.47C287.107 96.65 286.023 95.09 284.463 93.79ZM294.213 95.87C296.9 96.8233 299.023 98.6 300.583 101.2C302.143 103.8 302.923 106.487 302.923 109.26C302.923 112.12 302.143 114.85 300.583 117.45C299.023 120.05 296.9 121.827 294.213 122.78C296.38 120.96 298.157 118.837 299.543 116.41C300.93 113.897 301.623 111.513 301.623 109.26C301.623 107.007 300.93 104.667 299.543 102.24C298.157 99.8133 296.38 97.69 294.213 95.87ZM284.463 115.5C286.457 116.193 288.233 117.537 289.793 119.53C291.353 121.437 292.133 123.473 292.133 125.64C292.133 127.72 291.353 129.757 289.793 131.75C288.233 133.657 286.457 134.957 284.463 135.65C286.11 134.35 287.28 132.79 287.973 130.97C288.667 129.063 289.013 127.287 289.013 125.64C289.013 123.907 288.667 122.13 287.973 120.31C287.28 118.49 286.11 116.887 284.463 115.5ZM258.073 139.81C255.82 139.03 253.827 137.557 252.093 135.39C250.447 133.137 249.623 130.84 249.623 128.5C249.623 126.073 250.447 123.777 252.093 121.61C253.827 119.357 255.82 117.84 258.073 117.06C256.253 118.62 254.91 120.44 254.043 122.52C253.177 124.513 252.743 126.507 252.743 128.5C252.743 130.407 253.177 132.4 254.043 134.48C254.91 136.473 256.253 138.25 258.073 139.81ZM284.463 137.73C284.983 138.857 285.243 140.243 285.243 141.89C285.243 143.45 284.81 144.663 283.943 145.53C283.077 146.397 281.82 146.83 280.173 146.83C278.613 146.83 277.27 146.57 276.143 146.05C277.357 146.137 278.397 145.877 279.263 145.27C280.217 144.663 281.04 144.013 281.733 143.32C282.427 142.627 283.077 141.847 283.683 140.98C284.29 140.027 284.55 138.943 284.463 137.73ZM270.033 155.8C267.52 157.273 264.703 157.793 261.583 157.36C258.463 157.013 255.777 155.887 253.523 153.98C251.183 152.16 249.493 149.777 248.453 146.83C247.413 143.883 247.37 141.023 248.323 138.25C248.41 141.197 248.973 144.057 250.013 146.83C251.053 149.517 252.483 151.597 254.303 153.07C256.123 154.543 258.463 155.497 261.323 155.93C264.183 156.363 267.087 156.32 270.033 155.8ZM274.063 146.05C273.11 147.523 271.68 148.693 269.773 149.56C267.953 150.513 266.177 150.773 264.443 150.34C262.797 149.907 261.367 148.823 260.153 147.09C258.94 145.357 258.247 143.623 258.073 141.89C258.853 143.45 259.893 144.663 261.193 145.53C262.58 146.31 263.923 146.873 265.223 147.22C266.61 147.567 268.083 147.74 269.643 147.74C271.203 147.653 272.677 147.09 274.063 146.05ZM336.495 48.29C339.355 47.9433 342.085 48.5933 344.685 50.24C347.285 51.8867 349.192 53.9667 350.405 56.48C351.705 59.08 352.225 61.8967 351.965 64.93C351.705 67.9633 350.578 70.52 348.585 72.6C349.712 70 350.362 67.27 350.535 64.41C350.708 61.55 350.318 59.1233 349.365 57.13C348.325 55.05 346.592 53.23 344.165 51.67C341.825 50.0233 339.268 48.8967 336.495 48.29ZM315.695 57.65C316.995 55.9167 318.815 54.6167 321.155 53.75C323.495 52.7967 325.705 52.6667 327.785 53.36C329.865 53.9667 331.598 55.3533 332.985 57.52C334.458 59.6 335.238 61.7233 335.325 63.89C334.458 61.8967 333.245 60.2933 331.685 59.08C330.125 57.78 328.522 56.87 326.875 56.35C325.228 55.83 323.408 55.6567 321.415 55.83C319.422 55.9167 317.515 56.5233 315.695 57.65ZM309.455 75.2C307.895 74.16 306.595 72.6433 305.555 70.65C304.602 68.57 304.342 66.62 304.775 64.8C305.208 62.98 306.292 61.42 308.025 60.12C309.845 58.7333 311.708 57.91 313.615 57.65C311.882 58.5167 310.538 59.6867 309.585 61.16C308.718 62.6333 308.112 64.1067 307.765 65.58C307.418 66.9667 307.332 68.5267 307.505 70.26C307.678 71.9933 308.328 73.64 309.455 75.2ZM286.965 79.1C286.358 77.4533 286.358 75.72 286.965 73.9C287.485 72.08 288.395 70.6067 289.695 69.48C291.082 68.3533 292.728 67.7033 294.635 67.53C296.542 67.27 298.232 67.5733 299.705 68.44C295.978 67.8333 292.945 68.5267 290.605 70.52C288.178 72.5133 286.965 75.3733 286.965 79.1ZM335.325 75.72C336.625 74.16 338.402 73.0333 340.655 72.34C342.908 71.56 344.945 71.5167 346.765 72.21C348.672 72.9033 350.188 74.29 351.315 76.37C352.528 78.3633 353.135 80.3567 353.135 82.35C352.442 80.4433 351.402 78.9267 350.015 77.8C348.628 76.5867 347.198 75.6767 345.725 75.07C344.165 74.55 342.475 74.29 340.655 74.29C338.835 74.2033 337.058 74.68 335.325 75.72ZM296.585 82.48C296.585 81.0067 296.975 79.4467 297.755 77.8C298.535 76.1533 299.575 75.07 300.875 74.55C302.262 74.03 303.778 74.0733 305.425 74.68C307.158 75.2867 308.502 76.11 309.455 77.15C308.155 76.5433 306.855 76.3267 305.555 76.5C304.342 76.6733 303.172 76.9767 302.045 77.41C301.005 77.8433 299.922 78.45 298.795 79.23C297.755 80.01 297.018 81.0933 296.585 82.48ZM288.655 107.05C285.882 106.183 283.585 104.45 281.765 101.85C279.945 99.25 278.948 96.4767 278.775 93.53C278.602 90.67 279.252 87.8533 280.725 85.08C282.198 82.3067 284.278 80.3133 286.965 79.1C284.885 81.0933 283.195 83.4333 281.895 86.12C280.595 88.72 279.988 91.19 280.075 93.53C280.248 95.87 281.158 98.2533 282.805 100.68C284.365 103.107 286.315 105.23 288.655 107.05ZM355.085 83.26C356.732 84.2133 358.118 85.6867 359.245 87.68C360.372 89.5867 360.805 91.4933 360.545 93.4C360.198 95.3067 359.158 96.9967 357.425 98.47C355.778 99.9433 354.002 100.853 352.095 101.2C353.742 100.247 354.955 98.99 355.735 97.43C356.602 95.87 357.165 94.3533 357.425 92.88C357.685 91.4067 357.642 89.8033 357.295 88.07C357.035 86.3367 356.298 84.7333 355.085 83.26ZM297.235 101.2C295.502 100.767 293.855 99.8133 292.295 98.34C290.822 96.78 289.998 95.1333 289.825 93.4C289.652 91.6667 290.215 89.9333 291.515 88.2C292.728 86.4667 294.115 85.21 295.675 84.43C294.462 85.6433 293.682 87.0733 293.335 88.72C292.988 90.28 292.858 91.7533 292.945 93.14C293.118 94.5267 293.508 95.9567 294.115 97.43C294.722 98.9033 295.762 100.16 297.235 101.2ZM309.455 112.9C307.895 113.507 306.118 113.68 304.125 113.42C302.218 113.16 300.745 112.38 299.705 111.08C298.578 109.867 298.015 108.263 298.015 106.27C298.102 104.277 298.535 102.587 299.315 101.2C299.055 102.847 299.228 104.32 299.835 105.62C300.442 106.92 301.178 108.09 302.045 109.13C302.912 110.083 303.952 110.95 305.165 111.73C306.378 112.51 307.808 112.9 309.455 112.9ZM350.145 101.2C350.318 102.933 349.972 104.753 349.105 106.66C348.238 108.567 347.025 109.867 345.465 110.56C343.992 111.34 342.215 111.47 340.135 110.95C338.142 110.43 336.538 109.563 335.325 108.35C336.885 109.043 338.445 109.26 340.005 109C341.565 108.74 342.952 108.35 344.165 107.83C345.378 107.223 346.548 106.4 347.675 105.36C348.888 104.233 349.712 102.847 350.145 101.2ZM357.295 110.3C358.422 110.127 359.548 110.3 360.675 110.82C361.802 111.253 362.625 111.947 363.145 112.9C363.752 113.853 363.968 114.98 363.795 116.28C363.622 117.493 363.188 118.49 362.495 119.27C362.928 118.317 363.058 117.32 362.885 116.28C362.798 115.24 362.538 114.33 362.105 113.55C361.672 112.857 361.022 112.207 360.155 111.6C359.375 110.907 358.422 110.473 357.295 110.3ZM335.325 110.3C336.972 110.387 338.662 110.95 340.395 111.99C342.128 113.03 343.255 114.373 343.775 116.02C344.295 117.58 344.165 119.313 343.385 121.22C342.605 123.04 341.565 124.47 340.265 125.51C341.132 124.123 341.522 122.693 341.435 121.22C341.435 119.66 341.262 118.23 340.915 116.93C340.482 115.63 339.832 114.373 338.965 113.16C338.098 111.947 336.885 110.993 335.325 110.3ZM311.535 132.4C309.802 131.967 308.112 131.013 306.465 129.54C304.905 127.98 303.995 126.29 303.735 124.47C303.475 122.65 303.952 120.83 305.165 119.01C306.378 117.103 307.808 115.76 309.455 114.98C308.155 116.28 307.332 117.753 306.985 119.4C306.725 121.047 306.682 122.607 306.855 124.08C307.028 125.553 307.462 127.07 308.155 128.63C308.935 130.103 310.062 131.36 311.535 132.4ZM342.345 125.9C343.212 124.687 344.512 123.69 346.245 122.91C347.978 122.043 349.538 121.827 350.925 122.26C352.398 122.693 353.612 123.733 354.565 125.38C355.605 126.94 356.168 128.5 356.255 130.06C355.648 128.673 354.738 127.633 353.525 126.94C352.398 126.16 351.272 125.597 350.145 125.25C348.932 124.903 347.632 124.73 346.245 124.73C344.945 124.643 343.645 125.033 342.345 125.9ZM356.255 132.14C357.555 132.92 358.638 134.133 359.505 135.78C360.458 137.34 360.762 138.857 360.415 140.33C360.068 141.803 359.115 143.103 357.555 144.23C356.082 145.27 354.608 145.877 353.135 146.05C354.522 145.357 355.518 144.403 356.125 143.19C356.732 141.977 357.165 140.807 357.425 139.68C357.685 138.467 357.772 137.21 357.685 135.91C357.685 134.523 357.208 133.267 356.255 132.14ZM324.535 143.97C323.148 144.75 321.458 145.183 319.465 145.27C317.472 145.357 315.868 144.923 314.655 143.97C313.355 142.93 312.532 141.457 312.185 139.55C311.838 137.557 311.925 135.823 312.445 134.35C312.532 135.91 312.965 137.297 313.745 138.51C314.612 139.723 315.565 140.72 316.605 141.5C317.558 142.28 318.685 142.973 319.985 143.58C321.372 144.1 322.888 144.23 324.535 143.97ZM351.185 146.05C350.145 148.39 348.368 150.383 345.855 152.03C343.428 153.677 340.915 154.413 338.315 154.24C335.715 154.067 333.288 153.027 331.035 151.12C328.782 149.213 327.265 147.003 326.485 144.49C328.045 146.57 329.908 148.173 332.075 149.3C334.242 150.427 336.365 151.033 338.445 151.12C340.525 151.207 342.692 150.86 344.945 150.08C347.285 149.3 349.365 147.957 351.185 146.05ZM346.115 155.8C344.035 158.92 341.088 161.087 337.275 162.3C333.548 163.513 329.865 163.687 326.225 162.82C322.585 161.953 319.292 160.133 316.345 157.36C313.485 154.673 311.838 151.467 311.405 147.74C313.138 151.12 315.348 154.11 318.035 156.71C320.722 159.31 323.538 160.913 326.485 161.52C329.432 162.213 332.682 161.997 336.235 160.87C339.788 159.743 343.082 158.053 346.115 155.8ZM418.814 73.77C420.981 72.21 423.494 71.56 426.354 71.82C429.301 71.9933 431.858 72.86 434.024 74.42C436.278 75.98 437.924 78.1033 438.964 80.79C440.091 83.4767 440.308 86.12 439.614 88.72C439.441 86.0333 438.791 83.4767 437.664 81.05C436.538 78.6233 435.064 76.76 433.244 75.46C431.511 74.2467 429.301 73.51 426.614 73.25C424.014 72.9033 421.414 73.0767 418.814 73.77ZM399.574 81.05C400.874 79.0567 402.781 77.4533 405.294 76.24C407.808 75.0267 410.278 74.6367 412.704 75.07C415.044 75.59 417.124 76.9333 418.944 79.1C420.851 81.18 421.978 83.4333 422.324 85.86C421.111 83.6933 419.551 81.96 417.644 80.66C415.824 79.36 413.961 78.5367 412.054 78.19C410.148 77.7567 408.068 77.7567 405.814 78.19C403.561 78.6233 401.481 79.5767 399.574 81.05ZM380.724 86.38C380.811 84.56 381.461 82.74 382.674 80.92C383.888 79.0133 385.361 77.8 387.094 77.28C388.914 76.76 390.821 76.9333 392.814 77.8C394.808 78.58 396.368 79.7067 397.494 81.18C395.934 80.2267 394.288 79.75 392.554 79.75C390.908 79.6633 389.391 79.8367 388.004 80.27C386.618 80.7033 385.231 81.3967 383.844 82.35C382.458 83.3033 381.418 84.6467 380.724 86.38ZM357.324 113.29C354.811 111.123 353.251 108.263 352.644 104.71C352.038 101.157 352.341 97.82 353.554 94.7C354.768 91.4933 356.804 88.8067 359.664 86.64C362.438 84.3867 365.471 83.3033 368.764 83.39C365.644 84.5167 362.784 86.12 360.184 88.2C357.498 90.28 355.678 92.5767 354.724 95.09C353.771 97.6033 353.554 100.55 354.074 103.93C354.594 107.223 355.678 110.343 357.324 113.29ZM424.014 86.9C425.921 86.2933 428.001 86.2933 430.254 86.9C432.594 87.5067 434.371 88.59 435.584 90.15C436.711 91.71 437.231 93.7033 437.144 96.13C437.058 98.47 436.494 100.463 435.454 102.11C435.888 100.203 435.844 98.3833 435.324 96.65C434.804 94.83 434.024 93.27 432.984 91.97C432.031 90.7567 430.774 89.63 429.214 88.59C427.741 87.55 426.008 86.9867 424.014 86.9ZM367.984 105.23C366.598 103.497 365.774 101.373 365.514 98.86C365.254 96.26 365.688 94.05 366.814 92.23C368.028 90.41 369.804 89.0667 372.144 88.2C374.571 87.2467 376.868 87.03 379.034 87.55C376.868 87.81 374.961 88.59 373.314 89.89C371.668 91.1033 370.411 92.4467 369.544 93.92C368.591 95.3933 367.898 97.1267 367.464 99.12C367.118 101.113 367.291 103.15 367.984 105.23ZM395.024 104.97C395.198 104.103 395.544 103.193 396.064 102.24C395.804 101.893 395.588 101.547 395.414 101.2C395.674 101.46 395.934 101.72 396.194 101.98C396.801 100.94 397.538 100.073 398.404 99.38C399.271 98.6 400.181 98.1667 401.134 98.08C402.348 97.82 403.604 98.0367 404.904 98.73C406.204 99.4233 407.288 100.247 408.154 101.2C408.328 101.027 408.501 100.81 408.674 100.55C408.588 100.897 408.501 101.2 408.414 101.46C408.674 101.893 408.934 102.283 409.194 102.63C408.848 102.37 408.501 102.153 408.154 101.98C407.548 103.107 406.724 104.147 405.684 105.1C404.644 105.967 403.518 106.4 402.304 106.4C401.264 106.487 400.224 106.227 399.184 105.62C398.144 104.927 397.278 104.103 396.584 103.15C395.978 103.67 395.458 104.277 395.024 104.97ZM401.654 101.07C400.961 101.243 400.224 101.46 399.444 101.72C398.751 101.893 398.058 102.197 397.364 102.63C398.144 102.977 398.924 103.193 399.704 103.28C400.571 103.367 401.394 103.367 402.174 103.28C403.128 103.28 404.081 103.193 405.034 103.02C405.988 102.76 406.854 102.327 407.634 101.72C406.681 101.2 405.684 100.94 404.644 100.94C403.604 100.94 402.608 100.983 401.654 101.07ZM435.974 104.06C437.274 105.36 438.228 107.05 438.834 109.13C439.441 111.21 439.398 113.073 438.704 114.72C437.924 116.367 436.538 117.667 434.544 118.62C432.638 119.573 430.774 120.007 428.954 119.92C430.688 119.4 432.118 118.533 433.244 117.32C434.371 116.107 435.238 114.85 435.844 113.55C436.451 112.163 436.841 110.647 437.014 109C437.188 107.353 436.841 105.707 435.974 104.06ZM370.584 131.62C368.071 131.013 365.774 129.67 363.694 127.59C361.701 125.423 360.531 123.04 360.184 120.44C359.924 117.927 360.531 115.413 362.004 112.9C363.478 110.3 365.341 108.437 367.594 107.31C365.861 109.13 364.648 111.21 363.954 113.55C363.261 115.89 363.044 118.057 363.304 120.05C363.564 122.13 364.301 124.21 365.514 126.29C366.728 128.37 368.418 130.147 370.584 131.62ZM366.814 143.45C364.041 143.537 361.484 142.67 359.144 140.85C356.804 139.03 355.158 136.82 354.204 134.22C353.251 131.707 353.034 129.02 353.554 126.16C354.074 123.213 355.374 120.83 357.454 119.01C356.154 121.437 355.288 123.993 354.854 126.68C354.421 129.367 354.594 131.75 355.374 133.83C356.154 135.91 357.628 137.817 359.794 139.55C361.874 141.283 364.214 142.583 366.814 143.45ZM397.624 130.97C397.711 130.537 397.841 130.147 398.014 129.8C397.408 129.713 396.844 129.54 396.324 129.28C397.018 129.367 397.668 129.28 398.274 129.02C399.574 125.987 401.611 123.863 404.384 122.65C404.731 121.783 404.861 120.873 404.774 119.92C405.121 120.613 405.381 121.393 405.554 122.26C405.901 122.173 406.291 122.087 406.724 122C407.071 122 407.418 122 407.764 122C407.331 121.307 406.984 120.613 406.724 119.92C407.418 120.787 408.241 121.48 409.194 122C410.841 122.347 412.444 123.04 414.004 124.08C414.958 124.253 415.911 124.34 416.864 124.34C418.511 124.34 420.244 124.037 422.064 123.43C423.971 122.737 425.574 121.567 426.874 119.92C426.181 121.827 424.924 123.56 423.104 125.12C421.284 126.593 419.378 127.373 417.384 127.46C417.471 127.72 417.601 127.98 417.774 128.24C417.514 127.98 417.211 127.72 416.864 127.46C414.698 127.46 412.618 126.68 410.624 125.12C409.411 124.947 408.241 124.947 407.114 125.12C406.594 125.207 406.118 125.293 405.684 125.38C405.511 126.593 405.121 127.503 404.514 128.11C403.821 128.89 402.911 129.41 401.784 129.67C400.658 129.93 399.531 129.973 398.404 129.8C398.144 130.147 397.884 130.537 397.624 130.97ZM419.854 128.24C420.981 127.2 422.454 126.42 424.274 125.9C426.181 125.38 427.828 125.467 429.214 126.16C430.601 126.853 431.641 128.11 432.334 129.93C433.028 131.663 433.288 133.31 433.114 134.87C432.768 133.31 432.074 132.097 431.034 131.23C429.994 130.277 428.911 129.54 427.784 129.02C426.658 128.413 425.401 127.98 424.014 127.72C422.628 127.46 421.241 127.633 419.854 128.24ZM389.824 146.05C387.918 147.437 385.621 148.173 382.934 148.26C380.248 148.433 377.951 147.87 376.044 146.57C374.138 145.183 372.751 143.233 371.884 140.72C371.018 138.12 370.888 135.693 371.494 133.44C371.754 135.78 372.491 137.86 373.704 139.68C374.918 141.5 376.261 142.93 377.734 143.97C379.294 145.01 381.114 145.79 383.194 146.31C385.361 146.743 387.571 146.657 389.824 146.05ZM431.814 136.56C432.161 138.467 431.901 140.503 431.034 142.67C430.254 144.75 429.041 146.31 427.394 147.35C425.661 148.303 423.668 148.563 421.414 148.13C419.161 147.783 417.298 147.003 415.824 145.79C417.644 146.397 419.421 146.57 421.154 146.31C422.888 145.963 424.448 145.4 425.834 144.62C427.134 143.84 428.348 142.8 429.474 141.5C430.688 140.113 431.468 138.467 431.814 136.56ZM442.084 139.29C442.778 142.41 442.301 145.53 440.654 148.65C439.094 151.77 436.928 154.197 434.154 155.93C431.381 157.577 428.261 158.443 424.794 158.53C421.328 158.617 418.294 157.62 415.694 155.54C418.814 156.58 421.978 157.057 425.184 156.97C428.478 156.883 431.251 156.147 433.504 154.76C435.671 153.373 437.534 151.25 439.094 148.39C440.654 145.53 441.651 142.497 442.084 139.29ZM413.744 146.18C412.878 148.52 411.274 150.557 408.934 152.29C406.681 154.023 404.298 154.89 401.784 154.89C399.271 154.803 396.844 153.893 394.504 152.16C392.251 150.427 390.691 148.39 389.824 146.05C391.471 147.957 393.378 149.343 395.544 150.21C397.711 151.163 399.791 151.683 401.784 151.77C403.778 151.77 405.858 151.293 408.024 150.34C410.191 149.473 412.098 148.087 413.744 146.18Z" fill="#176BFF" fill-opacity="0.1"/>
</svg>
