<svg width="512" height="225" viewBox="0 0 512 225" fill="none" xmlns="http://www.w3.org/2000/svg">
<g clip-path="url(#clip0_54901_1144)">
<path d="M209.204 101.904C211.363 100.249 213.882 99.4393 216.763 99.4749C219.727 99.4881 222.346 100.222 224.62 101.676C227 103.192 228.812 105.264 230.054 107.892C231.38 110.497 231.73 113.14 231.102 115.821C230.719 113.052 229.898 110.491 228.639 108.136C227.38 105.782 225.826 104 223.977 102.791C222.15 101.665 219.88 101.062 217.167 100.982C214.431 100.818 211.777 101.125 209.204 101.904ZM184.981 118.489C185.118 116.657 185.803 114.859 187.035 113.093C188.35 111.305 189.887 110.176 191.645 109.705C193.403 109.234 195.256 109.455 197.206 110.368C199.239 111.259 200.773 112.463 201.807 113.98C200.36 112.932 198.774 112.37 197.049 112.294C195.408 112.196 193.875 112.337 192.452 112.718C191.029 113.1 189.631 113.743 188.259 114.649C186.887 115.555 185.794 116.835 184.981 118.489ZM203.817 113.442C204.507 112 205.642 110.709 207.22 109.569C208.799 108.428 210.378 107.96 211.958 108.165C213.516 108.286 214.938 109.071 216.223 110.521C217.593 111.948 218.479 113.416 218.883 114.922C217.916 113.656 216.776 112.751 215.463 112.205C214.151 111.659 212.852 111.334 211.568 111.23C210.368 111.103 209.045 111.188 207.599 111.486C206.215 111.677 204.954 112.329 203.817 113.442ZM181.218 136.589C179.603 135.586 178.253 134.064 177.167 132.022C176.082 129.98 175.733 128.01 176.122 126.111C176.511 124.213 177.597 122.576 179.382 121.2C181.228 119.718 183.094 118.815 184.981 118.489C183.251 119.401 181.927 120.653 181.008 122.245C180.15 123.731 179.565 125.233 179.255 126.752C178.944 128.271 178.898 129.943 179.118 131.768C179.316 133.51 180.016 135.117 181.218 136.589ZM169.864 159.012C167.004 157.715 164.813 155.565 163.291 152.563C161.769 149.562 161.118 146.461 161.337 143.262C161.579 140.147 162.675 137.206 164.626 134.44C166.577 131.675 169.101 129.877 172.198 129.047C169.56 130.92 167.338 133.175 165.532 135.813C163.788 138.344 162.811 140.893 162.602 143.462C162.454 145.924 163.035 148.594 164.345 151.473C165.738 154.33 167.578 156.843 169.864 159.012ZM220.016 116.638C222.443 115.987 225.001 116.155 227.687 117.139C230.435 118.018 232.488 119.487 233.847 121.545C235.29 123.581 235.91 126.062 235.707 128.987C235.565 131.807 234.786 134.259 233.371 136.343C234.066 133.913 234.152 131.557 233.63 129.275C233.192 126.97 232.433 124.975 231.354 123.29C230.191 121.628 228.631 120.161 226.676 118.891C224.72 117.62 222.5 116.869 220.016 116.638ZM179.381 162.384C177.052 161.393 175.121 159.712 173.589 157.341C172.034 154.886 171.372 152.417 171.603 149.932C171.729 147.386 172.72 145.057 174.576 142.945C176.516 140.81 178.689 139.375 181.094 138.641C179.081 140.168 177.545 141.97 176.487 144.048C175.429 146.126 174.811 148.176 174.635 150.197C174.52 152.112 174.807 154.188 175.497 156.426C176.27 158.641 177.565 160.627 179.381 162.384ZM242.192 132.095C245.708 131.153 249.214 131.514 252.711 133.179C256.292 134.822 259.116 137.16 261.186 140.195C263.255 143.229 264.406 146.689 264.64 150.575C264.873 154.46 263.942 157.85 261.847 160.744C262.797 157.259 263.147 153.711 262.897 150.099C262.709 146.382 261.753 143.318 260.031 140.908C258.392 138.476 255.931 136.489 252.646 134.946C249.362 133.404 245.877 132.453 242.192 132.095ZM212.849 166.74C211.598 166.088 210.477 165.087 209.487 163.738C207.843 165.973 205.818 167.457 203.413 168.192C204.679 167.224 205.691 166.146 206.449 164.956C207.207 163.766 207.764 162.495 208.119 161.143C207.789 160.245 207.721 159.321 207.915 158.372C207.987 157.635 208.248 156.937 208.7 156.277C208.653 154.764 208.356 153.319 207.807 151.941C207.343 151.885 206.952 151.766 206.634 151.582C205.573 150.969 204.851 149.951 204.47 148.528C204.066 147.021 203.981 145.698 204.214 144.559C204.422 145.67 204.931 146.565 205.741 147.245C206.529 147.842 207.348 148.385 208.197 148.875C208.94 149.304 209.778 149.753 210.711 150.22C211.705 150.582 212.777 150.564 213.926 150.166C212.889 150.983 211.647 151.54 210.202 151.837C210.549 152.462 210.854 153.098 211.117 153.745C212.383 152.778 213.655 152.168 214.933 151.915C214.163 152.391 213.511 152.969 212.976 153.651C212.441 154.333 212.012 155.076 211.689 155.88C211.846 156.466 211.919 157.075 211.909 157.705C211.804 158.99 211.437 160.299 210.808 161.634C210.865 162.516 211.017 163.418 211.263 164.338C211.571 165.153 212.1 165.954 212.849 166.74ZM234.503 138.058C236.345 137.565 238.291 137.626 240.34 138.244C242.474 138.838 244.058 139.894 245.092 141.412C246.127 142.929 246.537 144.793 246.321 147.004C246.19 149.193 245.57 151.064 244.461 152.617C244.955 150.78 244.948 149.077 244.438 147.509C243.989 145.835 243.376 144.384 242.599 143.157C241.738 141.952 240.637 140.856 239.296 139.869C237.932 138.799 236.335 138.195 234.503 138.058ZM177.287 189.727C174.851 188.675 172.845 186.88 171.268 184.342C169.668 181.72 168.961 179.083 169.148 176.431C169.335 173.779 170.429 171.332 172.43 169.091C174.409 166.766 176.643 165.226 179.132 164.469C177.035 166.018 175.396 167.938 174.215 170.228C173.012 172.434 172.334 174.59 172.18 176.695C172.026 178.8 172.358 181.044 173.176 183.427C173.994 185.809 175.364 187.91 177.287 189.727ZM245.593 154.332C247.937 153.704 250.441 153.841 253.105 154.742C255.853 155.621 257.906 157.089 259.266 159.148C260.602 161.122 261.2 163.519 261.058 166.339C260.916 169.158 260.126 171.568 258.688 173.569C259.406 171.223 259.515 168.951 259.015 166.752C258.577 164.447 257.776 162.463 256.613 160.801C255.556 159.2 254.061 157.806 252.128 156.619C250.256 155.326 248.078 154.564 245.593 154.332ZM175.952 207.85C174.427 207.182 173.083 206.017 171.92 204.355C170.673 202.715 170.099 201.074 170.197 199.433C170.357 197.685 171.151 196.127 172.578 194.757C173.983 193.304 175.512 192.311 177.164 191.779C175.814 192.769 174.847 194.015 174.262 195.517C173.739 196.914 173.425 198.254 173.321 199.538C173.239 200.906 173.358 202.355 173.678 203.884C173.975 205.329 174.733 206.652 175.952 207.85ZM259.946 175.25C261.208 175.271 262.582 175.71 264.068 176.568C265.638 177.404 266.633 178.438 267.053 179.672C267.412 181.011 267.215 182.454 266.463 184.002C265.795 185.527 264.901 186.708 263.78 187.547C264.537 186.357 264.854 185.195 264.73 184.062C264.584 182.845 264.376 181.735 264.106 180.73C263.731 179.664 263.23 178.632 262.604 177.634C262.039 176.529 261.153 175.734 259.946 175.25ZM227.567 185.003C227.33 187.13 226.492 189.194 225.054 191.194C223.594 193.111 221.859 194.338 219.85 194.877C217.757 195.437 215.599 195.253 213.376 194.323C211.131 193.31 209.415 191.93 208.229 190.184C209.911 191.438 211.721 192.165 213.658 192.364C215.573 192.478 217.368 192.312 219.042 191.863C220.633 191.437 222.229 190.695 223.83 189.638C225.408 188.497 226.654 186.952 227.567 185.003ZM240.188 192.926C238.961 193.704 237.465 194.149 235.701 194.263C233.937 194.377 232.491 194.002 231.362 193.138C230.233 192.274 229.528 190.982 229.247 189.263C228.944 187.46 229.011 185.872 229.451 184.498C229.559 185.905 229.979 187.138 230.711 188.198C231.505 189.152 232.36 189.999 233.277 190.741C234.171 191.398 235.19 192.022 236.336 192.613C237.542 193.097 238.826 193.202 240.188 192.926ZM206.22 190.723C207.333 191.86 208.147 193.392 208.663 195.317C209.262 197.22 209.217 198.892 208.526 200.333C207.919 201.752 206.698 202.887 204.863 203.738C203.088 204.482 201.38 204.805 199.739 204.707C201.329 204.281 202.568 203.545 203.454 202.5C204.402 201.349 205.171 200.201 205.761 199.055C206.329 197.827 206.696 196.517 206.862 195.127C207.089 193.63 206.875 192.162 206.22 190.723ZM188.952 217.691C187.43 219.714 185.372 221.073 182.777 221.768C180.182 222.464 177.711 222.453 175.366 221.735C172.936 221.04 170.863 219.667 169.147 217.614C167.369 215.668 166.376 213.467 166.166 211.011C167.129 213.265 168.477 215.282 170.21 217.06C171.943 218.839 173.781 220.007 175.724 220.562C177.668 221.118 179.823 221.124 182.189 220.58C184.639 220.013 186.893 219.05 188.952 217.691ZM259.899 198.681C258.434 201.586 256.137 203.726 253.007 205.104C249.876 206.481 246.731 206.965 243.571 206.555C240.41 206.146 237.467 204.871 234.74 202.73C232.035 200.674 230.31 198.085 229.564 194.966C231.376 197.71 233.528 200.049 236.02 201.984C238.596 203.895 241.179 204.998 243.77 205.29C246.277 205.606 249.012 205.097 251.975 203.765C254.96 202.516 257.602 200.822 259.899 198.681ZM197.73 205.245C197.453 207.562 196.429 209.766 194.656 211.856C192.883 213.946 190.844 215.21 188.539 215.648C186.256 216.17 183.875 215.821 181.395 214.602C178.937 213.466 177.082 211.899 175.829 209.902C177.662 211.385 179.653 212.287 181.803 212.608C183.975 213.013 185.993 213.011 187.857 212.601C189.721 212.191 191.568 211.382 193.398 210.174C195.227 208.966 196.671 207.323 197.73 205.245ZM261.896 188.052C261.659 190.179 260.81 192.201 259.349 194.118C257.911 196.118 256.146 197.398 254.053 197.959C252.044 198.498 249.875 198.271 247.546 197.28C245.323 196.351 243.618 195.013 242.433 193.267C244.176 194.415 246.016 195.088 247.954 195.287C249.891 195.486 251.655 195.372 253.246 194.946C254.92 194.497 256.546 193.702 258.125 192.562C259.726 191.504 260.983 190.001 261.896 188.052ZM272.003 109.302C272.139 106.126 273.342 103.246 275.611 100.665C277.88 98.0826 280.552 96.3348 283.627 95.4211C286.679 94.4238 289.842 94.339 293.114 95.1669C296.47 95.9724 299.116 97.6413 301.05 100.173C298.352 98.474 295.431 97.2828 292.287 96.5999C289.227 95.8946 286.452 95.9202 283.963 96.6769C281.558 97.4111 279.24 98.9742 277.01 101.366C274.863 103.736 273.195 106.381 272.003 109.302ZM298.719 111.565C299.375 109.326 300.718 107.306 302.748 105.506C304.756 103.622 306.946 102.587 309.318 102.399C311.691 102.212 314.025 102.888 316.321 104.426C318.679 105.858 320.328 107.659 321.269 109.83C319.642 108.112 317.762 106.956 315.629 106.361C313.557 105.66 311.555 105.389 309.624 105.548C307.692 105.706 305.736 106.275 303.755 107.255C301.775 108.234 300.096 109.671 298.719 111.565ZM272.518 119.259C273.292 117.795 274.48 116.535 276.081 115.478C277.765 114.398 279.409 114.003 281.012 114.291C282.318 114.479 283.528 115.142 284.64 116.28C285.836 117.395 286.697 118.6 287.223 119.894C286.993 118.7 286.983 117.491 287.194 116.268C287.382 114.962 287.869 113.934 288.656 113.185C289.565 112.224 290.87 111.739 292.573 111.731C294.276 111.724 295.711 112.057 296.878 112.731C295.572 112.543 294.419 112.762 293.421 113.388C292.422 114.015 291.53 114.703 290.744 115.452C289.957 116.201 289.247 117.064 288.611 118.042C287.954 118.936 287.667 120.044 287.753 121.367C286.869 120.079 285.771 119.162 284.458 118.616C283.123 117.987 281.803 117.578 280.496 117.39C279.273 117.179 277.928 117.181 276.46 117.395C275.075 117.586 273.761 118.208 272.518 119.259ZM263.72 136.151C262.312 134.914 261.285 133.259 260.641 131.189C260.058 129.013 260.12 127.067 260.827 125.352C261.534 123.637 262.877 122.29 264.858 121.311C266.816 120.248 268.7 119.743 270.509 119.797C268.773 120.352 267.317 121.28 266.141 122.582C265.048 123.862 264.229 125.158 263.683 126.471C263.077 127.89 262.693 129.473 262.534 131.22C262.435 132.862 262.831 134.505 263.72 136.151ZM323.146 110.807C325.026 110.124 327.064 110.027 329.258 110.515C331.537 110.981 333.277 111.951 334.479 113.423C335.681 114.895 336.28 116.798 336.278 119.132C336.252 121.382 335.75 123.356 334.769 125.054C335.158 123.156 335.044 121.392 334.428 119.762C333.873 118.027 333.081 116.579 332.053 115.419C331.108 114.237 329.881 113.175 328.373 112.233C326.864 111.291 325.122 110.816 323.146 110.807ZM270.315 160.763C267.83 160.531 265.459 159.552 263.202 157.824C261.028 156.073 259.627 154.026 258.999 151.682C258.371 149.338 258.561 146.865 259.568 144.262C260.659 141.637 262.223 139.603 264.259 138.16C262.821 140.161 261.963 142.319 261.687 144.637C261.388 146.87 261.497 148.949 262.013 150.875C262.529 152.8 263.486 154.697 264.883 156.566C266.259 158.351 268.069 159.75 270.315 160.763ZM297.196 154.099C296.998 152.357 297.314 150.523 298.144 148.596C298.974 146.669 300.181 145.313 301.765 144.53C302.809 144.071 304.014 143.882 305.382 143.965C304.176 143.48 303.187 142.803 302.415 141.933C301.467 143.084 300.179 143.968 298.55 144.584C297.004 145.178 295.547 145.433 294.179 145.351C295.747 144.841 297.058 144.042 298.112 142.952C299.144 141.778 299.932 140.535 300.478 139.222C300.578 138.926 300.689 138.672 300.812 138.46C300.592 136.635 300.813 134.781 301.475 132.899C301.357 132.123 301.102 131.339 300.71 130.547C301.179 130.959 301.576 131.436 301.901 131.977C302.207 131.446 302.525 130.958 302.854 130.51C302.615 131.292 302.501 132.041 302.513 132.755C303.554 134.63 303.975 136.536 303.776 138.473C303.949 138.786 304.165 139.087 304.422 139.377C305.116 140.626 306.049 141.767 307.223 142.798C308.48 143.807 309.994 144.434 311.764 144.677C310.927 144.901 310.045 144.958 309.118 144.848C310.347 145.416 311.336 146.093 312.085 146.879C310.537 146.127 308.946 145.881 307.311 146.139C305.759 146.376 304.389 146.788 303.2 147.375C301.928 147.985 300.682 148.858 299.46 149.993C298.3 151.021 297.546 152.39 297.196 154.099ZM343.817 121.15C347.402 121.804 350.46 123.676 352.993 126.766C355.587 129.75 357.157 133.097 357.703 136.809C358.333 140.499 357.932 144.195 356.502 147.898C355.049 151.517 352.73 154.247 349.544 156.088C351.936 153.293 353.786 150.151 355.094 146.66C356.485 143.147 356.925 139.934 356.413 137.02C355.986 134.084 354.581 131.185 352.199 128.324C349.818 125.463 347.023 123.072 343.817 121.15ZM265.608 180.866C261.945 180.592 258.755 179.069 256.039 176.297C253.239 173.548 251.368 170.416 250.425 166.9C249.483 163.384 249.538 159.736 250.588 155.955C251.555 152.196 253.556 149.283 256.59 147.213C254.517 150.192 253.017 153.465 252.088 157.033C251.054 160.54 250.919 163.717 251.681 166.563C252.444 169.41 254.161 172.135 256.833 174.739C259.398 177.281 262.323 179.324 265.608 180.866ZM335.558 126.996C337.496 127.195 339.37 127.994 341.18 129.393C343.052 130.686 344.193 132.264 344.603 134.128C345.096 135.97 344.856 137.919 343.881 139.974C342.907 142.03 341.661 143.575 340.143 144.61C341.253 143.056 341.845 141.417 341.921 139.692C342.081 137.944 341.959 136.317 341.555 134.81C341.258 133.365 340.603 131.925 339.591 130.492C338.64 128.952 337.296 127.787 335.558 126.996ZM275.564 180.352C273.626 180.153 271.722 179.408 269.85 178.115C268.062 176.799 266.921 175.221 266.428 173.379C265.934 171.537 266.133 169.6 267.024 167.567C267.998 165.511 269.275 163.913 270.853 162.772C269.744 164.325 269.11 165.976 268.95 167.723C268.874 169.449 269.038 171.065 269.441 172.571C269.845 174.078 270.511 175.56 271.44 177.016C272.452 178.449 273.827 179.561 275.564 180.352ZM340.305 146.72C342.099 148.392 343.366 150.61 344.106 153.372C344.93 156.113 344.878 158.594 343.948 160.817C343.041 163.124 341.36 165.055 338.905 166.61C336.512 168.058 334.096 168.751 331.656 168.687C333.955 167.891 335.91 166.65 337.522 164.962C339.133 163.274 340.323 161.519 341.091 159.699C341.776 157.9 342.077 155.845 341.996 153.534C341.999 151.201 341.435 148.929 340.305 146.72ZM349.544 156.088C350.483 156.913 351.143 158.037 351.525 159.46C351.99 160.861 351.98 162.164 351.496 163.371C351.012 164.577 350.167 165.611 348.962 166.472C347.841 167.311 346.608 167.731 345.263 167.733C346.496 167.312 347.536 166.675 348.384 165.82C349.293 164.858 349.928 163.881 350.29 162.886C350.674 161.976 350.792 160.912 350.646 159.695C350.56 158.372 350.193 157.17 349.544 156.088ZM282.856 207.065C280.182 206.794 277.651 205.723 275.265 203.85C272.879 201.977 271.297 199.754 270.518 197.181C269.822 194.586 270.028 191.839 271.136 188.941C272.266 186.126 273.921 183.932 276.102 182.361C274.542 184.574 273.562 186.945 273.163 189.474C272.848 191.981 272.97 194.281 273.531 196.374C274.153 198.361 275.228 200.361 276.754 202.374C278.364 204.365 280.398 205.929 282.856 207.065ZM329.815 169.853C329.716 171.494 329.124 173.134 328.037 174.771C327.057 176.469 325.782 177.573 324.214 178.083C322.646 178.593 320.94 178.422 319.097 177.57C317.254 176.718 315.848 175.659 314.881 174.393C316.2 175.296 317.615 175.724 319.128 175.677C320.641 175.631 322.025 175.439 323.281 175.103C324.537 174.766 325.767 174.168 326.972 173.306C328.283 172.507 329.231 171.355 329.815 169.853ZM303.356 179.096C305.483 179.334 307.505 180.183 309.422 181.643C311.422 183.081 312.691 184.804 313.23 186.814C313.768 188.823 313.53 190.95 312.517 193.195C311.61 195.502 310.283 197.248 308.537 198.434C309.791 196.752 310.476 194.954 310.591 193.039C310.789 191.101 310.664 189.295 310.216 187.621C309.79 186.03 309.006 184.446 307.865 182.867C306.808 181.266 305.305 180.009 303.356 179.096ZM308.732 200.67C308.523 203.238 307.524 205.704 305.735 208.067C303.946 210.431 301.796 211.949 299.284 212.622C296.795 213.379 294.154 213.234 291.362 212.188C288.653 211.119 286.524 209.536 284.975 207.439C287.165 208.916 289.461 209.781 291.862 210.035C294.285 210.373 296.49 210.231 298.477 209.609C300.402 209.093 302.318 208.041 304.226 206.453C306.156 204.949 307.658 203.021 308.732 200.67ZM318.554 199.653C319.217 202.795 318.743 205.883 317.133 208.916C315.523 211.95 313.335 214.33 310.568 216.059C307.862 217.681 304.765 218.511 301.276 218.549C297.87 218.564 294.91 217.563 292.396 215.545C295.462 216.607 298.592 217.07 301.785 216.932C305 216.878 307.732 216.191 309.98 214.87C312.145 213.573 313.971 211.513 315.458 208.692C317.029 205.849 318.061 202.836 318.554 199.653ZM355.022 87.0577C355.158 83.881 356.36 81.0017 358.629 78.4197C360.898 75.8378 363.57 74.09 366.645 73.1764C369.698 72.179 372.86 72.0942 376.133 72.9222C379.489 73.7276 382.134 75.3965 384.069 77.9287C381.371 76.2292 378.449 75.038 375.306 74.3551C372.245 73.6498 369.471 73.6754 366.982 74.4321C364.577 75.1663 362.259 76.7294 360.029 79.1215C357.882 81.4911 356.213 84.1365 355.022 87.0577ZM381.738 89.3202C382.394 87.0807 383.737 85.061 385.767 83.2609C387.775 81.3772 389.965 80.3417 392.337 80.1547C394.709 79.9676 397.044 80.6431 399.34 82.1812C401.698 83.6131 403.347 85.4144 404.287 87.5849C402.661 85.8674 400.781 84.7112 398.647 84.1164C396.575 83.4155 394.574 83.1443 392.642 83.303C390.711 83.4616 388.755 84.0306 386.774 85.0099C384.793 85.9893 383.115 87.426 381.738 89.3202ZM355.536 97.0138C356.311 95.5502 357.498 94.2899 359.099 93.2328C360.784 92.1534 362.428 91.7578 364.03 92.0462C365.337 92.2345 366.546 92.8973 367.659 94.0349C368.855 95.15 369.716 96.3548 370.242 97.6494C370.012 96.455 370.002 95.2463 370.213 94.0235C370.401 92.7169 370.888 91.6891 371.674 90.9401C372.583 89.9787 373.889 89.4943 375.592 89.4867C377.294 89.479 378.73 89.8123 379.897 90.4864C378.591 90.2981 377.438 90.5172 376.439 91.1437C375.441 91.7702 374.548 92.4579 373.762 93.2069C372.976 93.9559 372.265 94.8193 371.63 95.7971C370.972 96.6911 370.686 97.7996 370.771 99.1226C369.888 97.834 368.79 96.917 367.477 96.3715C366.142 95.7422 364.821 95.3335 363.515 95.1452C362.292 94.9345 360.946 94.9362 359.478 95.15C358.094 95.3415 356.78 95.9628 355.536 97.0138ZM346.739 113.906C345.331 112.669 344.304 111.015 343.66 108.944C343.076 106.768 343.138 104.822 343.845 103.107C344.552 101.393 345.896 100.046 347.877 99.0662C349.835 98.0032 351.719 97.4985 353.527 97.5522C351.792 98.1069 350.336 99.0354 349.159 100.338C348.067 101.617 347.248 102.913 346.702 104.226C346.095 105.645 345.712 107.228 345.552 108.976C345.454 110.617 345.849 112.261 346.739 113.906ZM406.164 88.5624C408.045 87.8791 410.082 87.7817 412.277 88.2704C414.555 88.7366 416.295 89.7059 417.497 91.1783C418.699 92.6507 419.299 94.5537 419.296 96.8872C419.271 99.1371 418.768 101.111 417.788 102.809C418.176 100.911 418.062 99.1469 417.446 97.5175C416.892 95.782 416.1 94.3342 415.071 93.1742C414.126 91.9918 412.9 90.9298 411.391 89.9881C409.883 89.0465 408.14 88.5712 406.164 88.5624ZM353.334 138.518C350.849 138.287 348.478 137.307 346.22 135.579C344.047 133.829 342.646 131.782 342.018 129.438C341.39 127.094 341.579 124.62 342.587 122.017C343.678 119.392 345.241 117.358 347.277 115.916C345.839 117.916 344.982 120.075 344.706 122.392C344.407 124.625 344.516 126.705 345.031 128.63C345.547 130.555 346.504 132.452 347.902 134.321C349.278 136.106 351.088 137.505 353.334 138.518ZM380.215 131.854C380.017 130.112 380.333 128.278 381.163 126.351C381.992 124.424 383.199 123.069 384.784 122.285C385.827 121.826 387.033 121.638 388.401 121.72C387.194 121.236 386.205 120.558 385.434 119.688C384.486 120.84 383.198 121.723 381.568 122.339C380.023 122.933 378.566 123.189 377.198 123.107C378.766 122.597 380.077 121.797 381.131 120.707C382.162 119.533 382.951 118.29 383.496 116.978C383.596 116.682 383.708 116.427 383.83 116.215C383.61 114.39 383.831 112.536 384.494 110.654C384.375 109.878 384.12 109.094 383.729 108.302C384.198 108.714 384.595 109.191 384.919 109.732C385.226 109.202 385.544 108.713 385.872 108.266C385.633 109.048 385.52 109.796 385.532 110.51C386.572 112.385 386.993 114.291 386.795 116.228C386.968 116.541 387.183 116.842 387.441 117.132C388.134 118.382 389.068 119.522 390.242 120.554C391.499 121.563 393.013 122.189 394.783 122.432C393.945 122.657 393.063 122.713 392.137 122.603C393.365 123.171 394.354 123.848 395.103 124.634C393.556 123.882 391.965 123.636 390.329 123.895C388.778 124.131 387.408 124.543 386.219 125.131C384.947 125.741 383.7 126.613 382.479 127.748C381.319 128.776 380.564 130.145 380.215 131.854ZM426.835 98.9047C430.42 99.5592 433.479 101.431 436.012 104.521C438.606 107.505 440.176 110.852 440.722 114.564C441.351 118.254 440.951 121.95 439.521 125.653C438.068 129.272 435.749 132.002 432.563 133.843C434.955 131.049 436.804 127.906 438.112 124.415C439.504 120.902 439.944 117.689 439.432 114.775C439.004 111.839 437.6 108.941 435.218 106.08C432.836 103.219 430.042 100.827 426.835 98.9047ZM348.626 158.622C344.964 158.347 341.774 156.824 339.058 154.052C336.257 151.303 334.386 148.171 333.444 144.655C332.502 141.139 332.556 137.491 333.607 133.71C334.574 129.952 336.575 127.038 339.609 124.969C337.536 127.947 336.035 131.22 335.107 134.788C334.073 138.296 333.937 141.472 334.7 144.319C335.463 147.165 337.18 149.89 339.851 152.494C342.417 155.037 345.342 157.079 348.626 158.622ZM418.577 104.751C420.515 104.95 422.389 105.749 424.199 107.148C426.071 108.441 427.212 110.019 427.621 111.884C428.115 113.725 427.874 115.674 426.9 117.73C425.925 119.785 424.679 121.33 423.162 122.365C424.271 120.812 424.864 119.172 424.94 117.447C425.1 115.7 424.978 114.072 424.574 112.566C424.276 111.12 423.621 109.68 422.609 108.247C421.658 106.707 420.314 105.542 418.577 104.751ZM358.582 158.107C356.645 157.909 354.74 157.163 352.869 155.87C351.081 154.554 349.94 152.976 349.446 151.134C348.953 149.292 349.152 147.355 350.042 145.322C351.017 143.266 352.293 141.668 353.872 140.527C352.763 142.081 352.128 143.731 351.969 145.479C351.892 147.204 352.056 148.82 352.46 150.327C352.864 151.833 353.53 153.315 354.458 154.771C355.471 156.204 356.845 157.317 358.582 158.107ZM423.324 124.475C425.118 126.148 426.385 128.365 427.125 131.128C427.949 133.868 427.896 136.349 426.967 138.572C426.059 140.879 424.378 142.81 421.924 144.365C419.531 145.814 417.114 146.506 414.675 146.442C416.974 145.646 418.929 144.405 420.54 142.717C422.152 141.029 423.341 139.275 424.11 137.454C424.794 135.655 425.096 133.6 425.015 131.289C425.018 128.956 424.454 126.684 423.324 124.475ZM432.563 133.843C433.502 134.668 434.162 135.792 434.543 137.215C435.008 138.616 434.999 139.919 434.515 141.126C434.03 142.332 433.186 143.366 431.981 144.227C430.86 145.066 429.627 145.486 428.281 145.488C429.514 145.068 430.555 144.43 431.402 143.575C432.311 142.613 432.947 141.636 433.308 140.642C433.692 139.731 433.811 138.668 433.664 137.451C433.579 136.128 433.212 134.925 432.563 133.843ZM365.875 184.82C363.2 184.55 360.67 183.478 358.284 181.605C355.898 179.732 354.315 177.509 353.536 174.937C352.841 172.342 353.047 169.595 354.154 166.696C355.284 163.881 356.94 161.688 359.121 160.116C357.56 162.329 356.581 164.7 356.182 167.229C355.866 169.736 355.989 172.036 356.55 174.129C357.172 176.116 358.246 178.116 359.773 180.129C361.383 182.121 363.417 183.684 365.875 184.82ZM412.834 147.608C412.735 149.25 412.143 150.889 411.056 152.526C410.075 154.224 408.801 155.328 407.233 155.838C405.665 156.348 403.959 156.177 402.116 155.325C400.272 154.473 398.867 153.414 397.9 152.148C399.218 153.051 400.634 153.479 402.147 153.433C403.66 153.386 405.044 153.195 406.3 152.858C407.555 152.522 408.786 151.923 409.991 151.062C411.302 150.262 412.249 149.111 412.834 147.608ZM386.374 156.851C388.502 157.089 390.524 157.938 392.44 159.398C394.441 160.836 395.71 162.56 396.248 164.569C396.787 166.578 396.549 168.705 395.536 170.951C394.628 173.257 393.302 175.004 391.556 176.189C392.81 174.507 393.495 172.709 393.609 170.794C393.808 168.856 393.683 167.051 393.235 165.376C392.808 163.786 392.025 162.201 390.884 160.623C389.827 159.022 388.324 157.765 386.374 156.851ZM391.751 178.425C391.542 180.993 390.543 183.459 388.754 185.823C386.965 188.186 384.814 189.705 382.303 190.377C379.814 191.134 377.173 190.989 374.38 189.943C371.672 188.874 369.543 187.292 367.994 185.194C370.184 186.671 372.479 187.536 374.88 187.79C377.304 188.128 379.509 187.986 381.495 187.364C383.421 186.848 385.337 185.796 387.244 184.208C389.174 182.704 390.677 180.776 391.751 178.425ZM401.573 177.408C402.235 180.55 401.762 183.638 400.152 186.672C398.542 189.705 396.354 192.086 393.587 193.814C390.881 195.436 387.784 196.266 384.295 196.304C380.889 196.319 377.929 195.318 375.414 193.3C378.481 194.362 381.61 194.825 384.803 194.687C388.019 194.633 390.751 193.946 392.999 192.626C395.164 191.328 396.99 189.268 398.477 186.447C400.048 183.604 401.08 180.591 401.573 177.408ZM440.084 56.5939C438.646 53.5698 438.371 50.3685 439.261 46.9899C440.127 43.5276 441.729 40.6311 444.065 38.3003C446.485 35.9471 449.381 34.3637 452.752 33.5502C456.184 32.6305 459.436 32.8806 462.508 34.3005C459.203 34.0198 455.918 34.3168 452.653 35.1916C449.45 35.9603 446.897 37.3171 444.996 39.2622C443.156 41.1011 441.769 43.6261 440.835 46.8373C439.984 50.026 439.734 53.2782 440.084 56.5939ZM462.447 45.6223C462.288 43.6909 462.707 41.7392 463.704 39.7673C464.762 37.6893 466.179 36.278 467.953 35.5334C469.727 34.7887 471.693 34.7557 473.848 35.4342C475.982 36.029 477.722 36.9983 479.069 38.3421C477.309 37.4677 475.559 37.1293 473.817 37.3268C472.137 37.4181 470.577 37.7912 469.137 38.4461C467.781 39.0786 466.451 39.9734 465.146 41.1306C463.841 42.2878 462.941 43.785 462.447 45.6223ZM481.58 37.6692C482.281 35.5972 483.627 33.7561 485.618 32.1459C487.587 30.4519 489.685 29.5757 491.912 29.5172C494.14 29.4588 496.276 30.2322 498.321 31.8376C500.428 33.3368 501.898 35.141 502.732 37.2503C501.296 35.5716 499.583 34.3706 497.595 33.6472C495.607 32.9239 493.772 32.6078 492.092 32.6992C490.306 32.7292 488.441 33.139 486.5 33.9285C484.558 34.718 482.918 35.9649 481.58 37.6692ZM449.375 59.6226C448.591 58.0381 448.182 56.1739 448.145 54.0302C448.193 51.8641 448.847 50.1187 450.107 48.7941C451.283 47.4919 452.91 46.6972 454.986 46.41C457.124 46.0167 459.039 46.1316 460.731 46.7549C458.945 46.7849 457.354 47.2111 455.96 48.0334C454.565 48.8557 453.383 49.8006 452.412 50.8681C451.442 51.9355 450.623 53.2317 449.955 54.7566C449.371 56.259 449.177 57.881 449.375 59.6226ZM513.729 31.0738C516.893 30.495 519.95 31.0217 522.9 32.6539C525.85 34.2861 528.105 36.5081 529.666 39.3199C531.204 42.048 531.939 45.126 531.871 48.5539C531.78 51.898 530.703 54.7437 528.64 57.0909C529.748 54.1921 530.328 51.1656 530.38 48.0113C530.409 44.7733 529.775 42.0721 528.477 39.9075C527.263 37.7206 525.277 35.8304 522.517 34.2371C519.757 32.6437 516.828 31.5893 513.729 31.0738ZM504.76 37.7838C506.405 36.8942 508.323 36.515 510.511 36.6464C512.677 36.6941 514.465 37.3367 515.873 38.5744C517.198 39.8345 518.015 41.5446 518.324 43.7048C518.634 45.8649 518.477 47.7911 517.854 49.4834C517.908 47.6746 517.512 46.0309 516.667 44.5525C515.823 43.0741 514.866 41.8499 513.799 40.8797C512.625 39.8484 511.276 38.9986 509.751 38.3305C508.226 37.6624 506.562 37.4802 504.76 37.7838ZM449.287 76.8732C447.723 76.395 446.256 75.4421 444.887 74.0146C443.517 72.587 442.798 71.075 442.729 69.4784C442.66 67.8819 443.233 66.3376 444.449 64.8455C445.725 63.2473 447.094 62.1627 448.556 61.5915C447.396 62.6201 446.65 63.852 446.317 65.2871C445.983 66.7223 445.848 68.0595 445.911 69.2988C445.996 70.6218 446.272 71.9836 446.737 73.3843C447.179 74.7013 448.029 75.8643 449.287 76.8732ZM487.351 73.2687C485.899 73.209 484.366 72.6777 482.751 71.6748C481.137 70.6718 480.139 69.4588 479.757 68.0356C479.502 69.0911 479.012 69.9402 478.287 70.5831C477.233 71.673 475.74 72.2973 473.809 72.4559C471.877 72.6145 470.149 72.3598 468.624 71.6917C470.266 71.7902 471.711 71.4926 472.961 70.7988C474.211 70.1051 475.248 69.2888 476.073 68.3499C477.005 67.4723 477.796 66.4078 478.448 65.1565C479.183 63.8828 479.474 62.4589 479.322 60.8847C479.736 61.7607 480.005 62.7653 480.129 63.8984C480.875 61.9938 481.965 60.5354 483.398 59.5233C482.557 60.7357 482.137 62.0147 482.138 63.3601C482.224 64.6831 482.423 65.9306 482.738 67.1026C483.052 68.2745 483.544 69.4435 484.216 70.6095C484.971 71.7531 486.016 72.6395 487.351 73.2687ZM518.46 51.7437C520.286 52.8692 521.787 54.6204 522.963 56.9972C524.115 59.2903 524.436 61.4923 523.925 63.6031C523.437 65.7977 522.208 67.742 520.239 69.4359C518.332 71.0237 516.256 71.9836 514.012 72.3156C515.971 71.2526 517.482 69.8607 518.546 68.1399C519.694 66.3968 520.485 64.6596 520.918 62.9285C521.268 61.2197 521.268 59.3802 520.92 57.41C520.633 55.3335 519.813 53.4448 518.46 51.7437ZM466.741 72.1964C466.559 73.8602 465.893 75.5638 464.746 77.3069C463.575 78.9664 462.195 80.0092 460.604 80.4354C459.014 80.8616 457.297 80.6487 455.453 79.7968C453.588 78.8611 452.202 77.7071 451.296 76.3349C452.637 77.3214 454.075 77.8333 455.61 77.8706C457.145 77.9078 458.541 77.7582 459.797 77.4217C461.136 77.0628 462.419 76.4946 463.647 75.7172C464.958 74.9173 465.989 73.7437 466.741 72.1964ZM528.64 57.0909C529.808 57.765 530.666 58.7912 531.215 60.1694C531.847 61.5253 532.028 62.8677 531.756 64.1967C531.461 65.442 530.776 66.5677 529.7 67.5739C528.623 68.5801 527.435 69.1677 526.134 69.3367C527.239 68.7715 528.151 67.9889 528.87 66.9887C529.673 65.9661 530.202 64.9271 530.457 63.8717C530.629 62.8387 530.558 61.7362 530.244 60.5642C529.991 59.286 529.457 58.1283 528.64 57.0909ZM477.639 95.7898C475.951 94.1784 474.759 92.0751 474.064 89.48C473.346 86.8012 473.463 84.3921 474.415 82.2528C475.261 80.0522 476.85 78.2806 479.182 76.9379C481.598 75.5729 483.995 74.9754 486.373 75.1457C484.135 75.835 482.241 76.9706 480.691 78.5523C479.119 80.0504 477.99 81.6986 477.306 83.4971C476.515 85.2342 476.096 87.1859 476.048 89.352C476.001 91.5182 476.531 93.6641 477.639 95.7898ZM470.881 102.715C468.631 102.69 466.589 101.936 464.756 100.453C462.901 98.8863 461.651 97.0678 461.007 94.9974C460.279 92.9494 460.189 90.7751 460.739 88.4743C461.373 86.1512 462.54 84.3131 464.241 82.96C463.116 84.7869 462.351 86.7864 461.946 88.9586C461.602 91.0246 461.708 92.9254 462.262 94.6609C462.795 96.3128 463.841 97.8719 465.4 99.3382C466.959 100.805 468.786 101.93 470.881 102.715ZM513.001 74.067C514.126 75.9191 514.709 78.0957 514.751 80.5967C514.771 83.014 514.153 85.0636 512.899 86.7455C511.561 88.4498 509.667 89.5853 507.217 90.1521C504.851 90.6965 502.643 90.66 500.593 90.0428C502.715 89.923 504.629 89.3653 506.336 88.3695C508.043 87.3737 509.39 86.2053 510.376 84.8643C511.447 83.5009 512.271 81.8893 512.849 80.0295C513.428 78.1698 513.478 76.1823 513.001 74.067ZM488.382 102.736C488.644 102.038 489 101.359 489.452 100.7C487.52 100.858 485.58 100.481 483.631 99.5677C481.742 98.5483 480.281 97.28 479.246 95.7627C481.012 96.9944 482.863 97.7095 484.801 97.9082C486.716 98.0231 488.469 97.8675 490.059 97.4413C491.734 96.9927 493.371 96.2399 494.972 95.1828C496.551 94.0421 497.755 92.5082 498.584 90.5812C498.424 92.3287 497.812 94.0629 496.748 95.7836C497.273 95.7328 497.798 95.6819 498.322 95.631C500.405 95.7011 502.332 96.5306 504.103 98.1196C505.959 99.6861 507.197 101.463 507.819 103.449C506.573 101.81 505.05 100.647 503.251 99.9629C501.537 99.2559 499.859 98.8532 498.217 98.7547C496.325 98.7234 494.522 99.027 492.809 99.6655C492.351 99.9675 491.913 100.175 491.495 100.287C490.329 100.958 489.291 101.774 488.382 102.736ZM481.423 108.907C481.053 108.199 480.765 107.289 480.557 106.178C480.349 105.068 480.524 104.213 481.081 103.615C481.555 103.04 482.381 102.774 483.559 102.817C484.737 102.86 485.675 103.013 486.373 103.274C485.553 103.225 484.958 103.519 484.591 104.155C484.201 104.709 483.799 105.22 483.387 105.689C482.974 106.159 482.52 106.639 482.023 107.131C481.505 107.539 481.304 108.131 481.423 108.907ZM486.099 126.362C484.184 126.247 482.291 125.543 480.419 124.25C478.609 122.851 477.457 121.23 476.963 119.389C476.492 117.631 476.702 115.735 477.593 113.702C478.545 111.563 479.822 109.964 481.423 108.907C480.313 110.461 479.679 112.111 479.519 113.859C479.443 115.584 479.596 117.158 479.977 118.581C480.381 120.088 481.047 121.569 481.975 123.025C482.988 124.459 484.362 125.571 486.099 126.362ZM508.358 105.458C509.989 106.188 511.397 107.426 512.583 109.172C513.852 110.895 514.418 112.672 514.281 114.504C514.121 116.251 513.308 117.905 511.841 119.464C510.353 120.94 508.729 121.913 506.971 122.384C508.405 121.372 509.414 120.115 509.998 118.612C510.666 117.087 511.072 115.588 511.215 114.114C511.297 112.746 511.125 111.267 510.699 109.676C510.357 108.063 509.576 106.657 508.358 105.458ZM521.813 118.003C522.621 121.017 522.345 124.007 520.986 126.973C519.734 130 517.861 132.386 515.368 134.131C512.874 135.876 509.959 136.882 506.62 137.148C503.366 137.392 500.515 136.63 498.068 134.864C500.96 135.614 503.939 135.848 507.004 135.565C510.068 135.282 512.577 134.43 514.529 133.01C516.587 131.651 518.223 129.553 519.437 126.715C520.757 123.939 521.549 121.035 521.813 118.003ZM504.962 122.922C504.825 124.754 504.098 126.563 502.783 128.351C501.574 130.201 500.09 131.361 498.332 131.832C496.49 132.325 494.542 132.085 492.486 131.11C490.537 130.197 489.045 128.982 488.01 127.465C489.541 128.49 491.127 129.052 492.769 129.151C494.516 129.31 496.101 129.2 497.525 128.818C498.948 128.437 500.334 127.751 501.684 126.762C503.14 125.833 504.233 124.553 504.962 122.922Z" fill="#176BFF" fill-opacity="0.1"/>
</g>
<defs>
<clipPath id="clip0_54901_1144">
<rect width="512" height="225" fill="white"/>
</clipPath>
</defs>
</svg>
