<svg width="512" height="226" viewBox="0 0 512 226" fill="none" xmlns="http://www.w3.org/2000/svg">
<g clip-path="url(#clip0_54901_1151)">
<path d="M45.3507 49.1755C47.5946 46.5544 50.4803 44.8725 54.0077 44.1297C57.6187 43.4098 61.0619 43.6323 64.3373 44.7973C67.6127 45.9623 70.3973 47.9365 72.6912 50.7199C75.0686 53.5262 76.2829 56.6434 76.3341 60.0715C75.1426 56.8707 73.4189 53.9736 71.1629 51.3803C68.9298 48.7033 66.4985 46.9155 63.8691 46.017C61.346 45.0577 58.3741 44.9191 54.9531 45.6011C51.5322 46.2832 48.3314 47.4746 45.3507 49.1755ZM32.8731 55.8721C33.9382 54.2765 35.4896 53.0385 37.5273 52.158C39.5878 51.1939 41.5376 50.9632 43.3768 51.466C45.216 51.9688 46.7773 53.1593 48.0607 55.0376C49.4507 56.8551 50.1982 58.7217 50.3035 60.6372C49.5216 58.8961 48.4051 57.5576 46.9538 56.6218C45.5254 55.6024 44.0588 54.887 42.554 54.4756C41.1329 54.0871 39.5481 53.9683 37.7997 54.1193C36.0742 54.1866 34.432 54.7709 32.8731 55.8721ZM52.3099 61.1857C53.7551 59.5144 55.7056 58.2956 58.1612 57.5293C60.7004 56.7859 63.0226 56.8368 65.1276 57.6818C67.2326 58.5268 68.9229 60.067 70.1986 62.3026C71.5578 64.5609 72.2025 66.8037 72.1328 69.0308C71.3816 66.8488 70.2539 65.058 68.7497 63.6585C67.2455 62.259 65.6385 61.2356 63.9286 60.5885C62.3024 59.9642 60.4593 59.64 58.3994 59.616C56.3395 59.5919 54.3096 60.1152 52.3099 61.1857ZM14.9023 58.5064C15.3215 56.6444 16.2537 54.8777 17.699 53.2063C19.2507 51.4742 20.9539 50.5023 22.8087 50.2906C24.6864 49.9953 26.5902 50.4259 28.5202 51.5824C30.4502 52.739 31.9012 54.1689 32.8731 55.8721C31.4297 54.5791 29.8491 53.7876 28.1314 53.4977C26.4137 53.2078 24.8061 53.1726 23.3085 53.3922C21.811 53.6117 20.2752 54.1352 18.7013 54.9628C17.1502 55.7068 15.8839 56.888 14.9023 58.5064ZM73.8423 70.172C75.4313 69.6181 77.2519 69.5317 79.3039 69.9131C81.356 70.2944 82.9137 71.1694 83.9771 72.5383C85.0404 73.9071 85.5182 75.6101 85.4106 77.6471C85.3865 79.707 84.9484 81.474 84.0962 82.9482C84.4468 81.3369 84.3223 79.8204 83.7227 78.3986C83.1459 76.8933 82.4284 75.574 81.5701 74.4409C80.689 73.3914 79.6065 72.4216 78.3224 71.5315C77.0384 70.6414 75.545 70.1882 73.8423 70.172ZM8.90311 80.4512C7.07956 79.2339 5.67822 77.4582 4.69909 75.124C3.71995 72.7899 3.51606 70.5778 4.08742 68.4878C4.68163 66.3143 5.99395 64.4718 8.02437 62.9604C10.0548 61.449 12.1646 60.6331 14.3538 60.5128C12.3998 61.4162 10.7952 62.6846 9.53999 64.3181C8.39126 65.8908 7.57692 67.555 7.09698 69.3106C6.6399 70.9826 6.49436 72.8296 6.66036 74.8516C6.93281 76.8128 7.68039 78.6794 8.90311 80.4512ZM-1.18741 80.3881C-3.0717 79.0643 -4.36658 77.2278 -5.07207 74.8787C-5.77755 72.5295 -5.83319 70.2681 -5.23898 68.0945C-4.62192 65.8373 -3.41214 63.877 -1.60966 62.2134C0.19283 60.5498 2.2419 59.6275 4.53757 59.4465C2.47707 60.4106 0.682399 61.7169 -0.846436 63.3654C-2.43602 64.9075 -3.4822 66.5981 -3.985 68.4373C-4.46493 70.1929 -4.42433 72.1806 -3.86319 74.4005C-3.3628 76.5139 -2.47087 78.5098 -1.18741 80.3881ZM84.7448 85.0123C86.6598 85.8952 88.3083 87.424 89.6904 89.5988C91.0725 91.7736 91.6451 93.9516 91.4081 96.133C91.2548 98.3373 90.254 100.355 88.4058 102.186C86.6412 104.039 84.7022 105.216 82.5887 105.717C84.4442 104.517 85.8019 103.001 86.6619 101.17C87.6056 99.3612 88.1805 97.5867 88.3868 95.8461C88.5095 94.0828 88.2978 92.2279 87.7517 90.2817C87.2056 88.3355 86.2033 86.579 84.7448 85.0123ZM45.0125 99.2176C44.7924 98.7082 44.6255 98.1684 44.5118 97.5982C44.0403 98.0084 43.5802 98.3768 43.1315 98.7034C43.5651 98.1031 43.9266 97.4382 44.2159 96.7087C43.7841 94.3445 44.0703 92.3113 45.0747 90.6093C45.0446 90.062 44.9613 89.545 44.8248 89.0585C44.749 88.6784 44.62 88.3287 44.4378 88.0093C43.336 87.4385 42.3559 86.5866 41.4977 85.4535C40.7459 84.2597 40.1842 83.028 39.8125 81.7583C39.6074 81.5226 39.3376 81.359 39.0032 81.2676C39.2769 81.2525 39.5391 81.2793 39.7899 81.3479C39.6384 80.5876 39.559 79.8921 39.5518 79.2612C39.8477 80.1507 40.2614 80.9377 40.7931 81.6221C43.0274 82.3228 44.8395 83.5819 46.2295 85.3994C47.5442 85.8486 48.9579 86.1003 50.4705 86.1545C51.9831 86.2086 53.4313 85.8408 54.8152 85.0511C54.1458 85.8565 53.2788 86.5628 52.2143 87.1703C53.5597 87.1787 54.7833 87.4683 55.8851 88.039C54.2282 87.8556 52.761 88.1284 51.4836 88.8573C50.2061 89.5862 49.1148 90.4559 48.2097 91.4663C48.0804 91.6107 47.9093 91.7436 47.6964 91.8651C47.3836 93.6664 46.5275 95.3191 45.128 96.8233C44.983 97.6821 44.9445 98.4802 45.0125 99.2176ZM3.28097 101.017C1.62463 99.845 0.325831 98.1871 -0.615414 96.043C-1.5338 93.8153 -1.73018 91.7401 -1.20453 89.8173C-0.678883 87.8945 0.534502 86.2496 2.43562 84.8825C4.3596 83.4319 6.33259 82.6236 8.35461 82.4576C6.50701 83.3002 5.06207 84.4775 4.0198 85.9895C2.97752 87.5015 2.23927 89.0517 1.80504 90.6401C1.37081 92.2284 1.21775 93.9386 1.34585 95.7706C1.47396 97.6025 2.119 99.3512 3.28097 101.017ZM92.8958 105.974C94.4066 108.992 94.7771 112.238 94.0072 115.711C93.2374 119.185 91.723 122.095 89.464 124.442C87.1822 126.873 84.2966 128.555 80.8071 129.488C77.4012 130.444 74.2088 130.29 71.2299 129.026C74.5059 129.203 77.71 128.821 80.8422 127.881C84.0581 126.963 86.6015 125.547 88.4726 123.632C90.26 121.695 91.5462 119.127 92.3311 115.927C93.1388 112.644 93.327 109.326 92.8958 105.974ZM-8.59217 107.474C-10.9931 105.74 -12.6335 103.359 -13.5134 100.334C-14.3933 97.3079 -14.4447 94.3738 -13.6677 91.5314C-12.8906 88.689 -11.3537 86.1892 -9.05683 84.0318C-6.75997 81.8745 -4.13683 80.6599 -1.18741 80.3881C-3.86378 81.633 -6.25537 83.3152 -8.36217 85.4347C-10.4461 87.4705 -11.7966 89.6171 -12.4137 91.8742C-13.0308 94.1314 -12.9715 96.7082 -12.236 99.6047C-11.4776 102.418 -10.263 105.041 -8.59217 107.474ZM81.7894 107.654C82.4877 109.373 82.6651 111.353 82.3217 113.595C82.0012 115.754 81.1754 117.46 79.8444 118.713C78.407 120.027 76.5519 120.733 74.2791 120.83C72.1127 120.867 70.1975 120.478 68.5333 119.664C70.3575 119.893 72.0337 119.677 73.5619 119.017C75.1966 118.296 76.5501 117.453 77.6224 116.488C78.8013 115.463 79.775 114.202 80.5436 112.705C81.3958 111.23 81.8111 109.547 81.7894 107.654ZM66.6289 120.221C65.7382 122.494 64.1711 124.446 61.9278 126.079C59.7073 127.628 57.3885 128.387 54.9714 128.355C52.6378 128.346 50.3656 127.455 48.1547 125.683C46.0275 123.933 44.5882 121.968 43.837 119.786C45.3106 121.626 47.0466 122.999 49.0451 123.905C51.1502 124.75 53.1794 125.215 55.1328 125.3C57.0255 125.278 58.9793 124.869 60.9941 124.072C63.0925 123.298 64.9707 122.014 66.6289 120.221ZM-2.44401 121.958C-4.10035 120.787 -5.42952 119.075 -6.43151 116.825C-7.3499 114.597 -7.54627 112.522 -7.02063 110.599C-6.47212 108.593 -5.23589 106.864 -3.31191 105.414C-1.30434 103.986 0.710458 103.189 2.73247 103.023C0.884875 103.866 -0.613288 105.073 -1.76202 106.646C-2.8043 108.158 -3.55398 109.75 -4.01106 111.422C-4.44529 113.01 -4.60978 114.762 -4.50452 116.678C-4.29281 118.533 -3.60598 120.293 -2.44401 121.958ZM41.8307 119.237C41.7765 120.75 41.2587 122.315 40.2772 123.934C39.3185 125.469 38.1397 126.494 36.7408 127.01C35.2811 127.42 33.7077 127.259 32.0207 126.528C30.3566 125.714 29.065 124.687 28.146 123.447C29.4301 124.338 30.7144 124.734 31.9991 124.636C33.3673 124.56 34.6445 124.326 35.8305 123.931C36.9937 123.62 38.1189 123.119 39.2063 122.428C40.4002 121.676 41.2749 120.613 41.8307 119.237ZM27.5975 125.454C29.0259 126.473 30.15 127.949 30.9697 129.88C31.8959 131.75 32.1305 133.521 31.6734 135.193C31.2163 136.865 30.1133 138.271 28.3644 139.41C26.699 140.572 24.9921 141.229 23.2438 141.379C24.7949 140.635 25.9737 139.61 26.7802 138.303C27.6703 137.019 28.2982 135.708 28.6639 134.371C29.0295 133.033 29.1558 131.585 29.0428 130.027C29.0361 128.408 28.5544 126.883 27.5975 125.454ZM0.374336 137.284C-1.11541 137.146 -2.62771 136.598 -4.16257 135.639C-5.59097 134.62 -6.46816 133.392 -6.79414 131.955C-7.14297 130.602 -6.92165 129.135 -6.13017 127.554C-5.25509 125.996 -4.2092 124.8 -2.99251 123.964C-3.85977 125.165 -4.28618 126.396 -4.27174 127.658C-4.25731 128.92 -4.09462 130.132 -3.78367 131.295C-3.53348 132.352 -3.11608 133.454 -2.53149 134.603C-1.94689 135.751 -0.978285 136.644 0.374336 137.284ZM32.3401 145.079C31.4945 148.172 29.7257 150.699 27.0337 152.658C24.3189 154.701 21.3499 155.866 18.1268 156.153C14.9874 156.463 11.8674 155.879 8.76705 154.403C5.75027 152.949 3.55865 150.778 2.19219 147.889C4.45598 150.125 7.0241 151.905 9.89654 153.229C12.769 154.554 15.4899 155.118 18.0592 154.922C20.5677 154.619 23.1034 153.56 25.6661 151.745C28.3124 149.953 30.537 147.731 32.3401 145.079ZM21.8518 143.02C20.5737 144.738 18.8094 146.097 16.5589 147.099C14.3083 148.101 12.1381 148.316 10.0481 147.745C8.04171 147.197 6.28282 145.907 4.77142 143.877C3.32076 141.953 2.48206 139.926 2.25531 137.798C3.15867 139.752 4.40815 141.262 6.00375 142.327C7.66009 143.498 9.28245 144.301 10.8708 144.735C12.5428 145.193 14.348 145.327 16.2864 145.138C18.2248 144.949 20.08 144.243 21.8518 143.02ZM113.92 66.5732C116.004 64.5373 118.563 63.3949 121.596 63.1459C124.735 62.8362 127.604 63.351 130.203 64.6904C132.825 65.9462 134.948 67.8743 136.573 70.4749C138.282 73.0984 138.968 75.8466 138.632 78.7196C137.957 75.9296 136.815 73.3711 135.204 71.0442C133.617 68.6337 131.764 66.8691 129.644 65.7504C127.584 64.7382 125.091 64.3262 122.165 64.5145C119.322 64.7256 116.574 65.4118 113.92 66.5732ZM102.407 81.0806C102.415 79.7352 102.804 78.3141 103.572 76.8171C104.341 75.3201 105.33 74.3326 106.539 73.8544C107.831 73.3992 109.237 73.514 110.757 74.1991C112.277 74.8841 113.477 75.7513 114.359 76.8008C113.196 76.1236 112.003 75.8873 110.779 76.0918C109.661 76.2355 108.605 76.4857 107.609 76.8423C106.613 77.199 105.582 77.681 104.518 78.2885C103.537 78.9188 102.833 79.8495 102.407 81.0806ZM122.76 79.0977C124.022 79.0832 125.371 79.4071 126.807 80.0693C128.266 80.6479 129.246 81.4998 129.747 82.6251C130.248 83.7503 130.198 85.0843 129.597 86.627C129.018 88.0861 128.257 89.2258 127.314 90.0461C127.885 88.9443 128.045 87.865 127.795 86.8083C127.545 85.7516 127.23 84.7671 126.851 83.8547C126.471 82.9423 125.997 82.0489 125.427 81.1744C124.88 80.2163 123.991 79.5241 122.76 79.0977ZM96.3734 103.151C94.5727 101.85 93.1828 100.032 92.2037 97.6982C91.2245 95.3641 91.0207 93.152 91.592 91.062C92.1634 88.9721 93.4643 87.1714 95.4947 85.66C97.5251 84.1486 99.6464 83.2909 101.858 83.087C99.9044 83.9904 98.2998 85.2588 97.0446 86.8923C95.873 88.5486 95.0587 90.2128 94.6016 91.8848C94.1445 93.5568 93.9989 95.4038 94.1649 97.4258C94.4145 99.4706 95.1507 101.379 96.3734 103.151ZM126.766 92.0525C128.878 93.5284 130.462 95.6235 131.517 98.3378C132.571 101.052 132.756 103.663 132.07 106.171C131.385 108.679 129.898 110.833 127.608 112.633C125.319 114.433 122.89 115.431 120.321 115.627C122.678 114.565 124.56 113.103 125.967 111.241C127.481 109.319 128.512 107.355 129.061 105.348C129.609 103.342 129.71 101.168 129.361 98.8267C129.12 96.4246 128.254 94.1665 126.766 92.0525ZM77.7811 134.186C74.8407 132.125 72.8852 129.254 71.9144 125.575C70.8601 121.872 70.8129 118.265 71.7728 114.754C72.7327 111.243 74.6082 108.162 77.3995 105.511C80.1071 102.837 83.2511 101.36 86.8314 101.081C83.5392 102.607 80.6039 104.635 78.0256 107.164C75.4472 109.694 73.781 112.338 73.0268 115.097C72.2726 117.856 72.3619 120.98 73.2947 124.469C74.2276 127.959 75.723 131.198 77.7811 134.186ZM90.8884 123.215C89.3157 122.066 88.0472 120.461 87.0831 118.401C86.1419 116.257 85.9341 114.223 86.4597 112.3C86.9854 110.378 88.1873 108.774 90.0656 107.491C91.9667 106.124 93.8865 105.346 95.8249 105.157C94.0609 106.023 92.6578 107.211 91.6155 108.723C90.5961 110.152 89.8807 111.618 89.4693 113.123C89.0579 114.628 88.9163 116.296 89.0444 118.128C89.1954 119.877 89.81 121.572 90.8884 123.215ZM119.772 117.634C121.885 119.11 123.499 121.258 124.614 124.079C125.73 126.899 125.945 129.564 125.259 132.072C124.574 134.58 123.033 136.764 120.638 138.625C118.242 140.486 115.76 141.514 113.19 141.71C115.547 140.648 117.483 139.155 118.997 137.233C120.617 135.25 121.701 133.255 122.25 131.249C122.798 129.243 122.868 127.016 122.459 124.568C122.157 122.059 121.261 119.748 119.772 117.634ZM126.709 129.234C129.11 130.968 130.75 133.348 131.63 136.374C132.51 139.4 132.562 142.334 131.785 145.176C131.008 148.019 129.471 150.519 127.174 152.676C124.877 154.833 122.254 156.048 119.304 156.32C121.981 155.075 124.361 153.434 126.445 151.398C128.552 149.279 129.914 147.091 130.531 144.834C131.148 142.576 131.077 140.041 130.319 137.228C129.583 134.332 128.38 131.667 126.709 129.234ZM85.1291 144.282C83.4728 143.11 82.1436 141.399 81.1416 139.148C80.1397 136.898 79.9129 134.769 80.4614 132.763C81.0099 130.757 82.2879 129.039 84.2955 127.612C86.3031 126.184 88.3179 125.387 90.3399 125.221C88.4923 126.064 86.9941 127.271 85.8454 128.844C84.6967 130.417 83.9052 131.997 83.471 133.586C83.0367 135.174 82.9141 136.937 83.1029 138.876C83.2918 140.814 83.9672 142.616 85.1291 144.282ZM112.642 143.717C114.154 144.759 115.362 146.257 116.265 148.211C117.168 150.165 117.38 152.02 116.9 153.776C116.42 155.531 115.294 157.02 113.522 158.243C111.751 159.466 109.949 160.141 108.117 160.269C109.751 159.548 111.025 158.504 111.938 157.136C112.851 155.768 113.502 154.374 113.891 152.953C114.279 151.532 114.428 150 114.338 148.358C114.248 146.716 113.682 145.169 112.642 143.717ZM86.0313 160.701C84.5265 160.289 83.0828 159.49 81.7001 158.304C80.3403 157.033 79.6038 155.619 79.4907 154.061C79.2712 152.563 79.7244 151.07 80.8503 149.581C81.999 148.008 83.2425 146.91 84.5806 146.288C83.4854 147.336 82.8386 148.552 82.6401 149.935C82.4417 151.319 82.4029 152.611 82.5238 153.812C82.6447 155.013 82.9327 156.26 83.388 157.552C83.8662 158.761 84.7473 159.81 86.0313 160.701ZM107.568 162.276C106.769 164.213 105.366 165.896 103.358 167.324C101.457 168.691 99.4878 169.321 97.4507 169.213C95.3301 169.083 93.3733 168.188 91.5804 166.53C89.7647 164.956 88.5838 163.195 88.0377 161.249C89.2833 162.937 90.761 164.105 92.4709 164.752C94.2415 165.506 95.9249 165.921 97.5211 165.998C99.2009 166.098 100.919 165.894 102.675 165.385C104.538 164.816 106.169 163.78 107.568 162.276ZM115.716 168.951C115.221 171.421 113.935 173.495 111.859 175.174C109.844 176.959 107.623 178.014 105.198 178.339C102.751 178.748 100.277 178.431 97.7764 177.388C95.3599 176.368 93.5556 174.752 92.3635 172.539C94.24 174.22 96.3258 175.465 98.6208 176.272C100.893 177.162 103.021 177.43 105.005 177.074C106.967 176.801 108.921 175.898 110.867 174.364C112.791 172.913 114.408 171.109 115.716 168.951ZM177.216 108.27C180.243 106.402 183.622 105.709 187.354 106.19C191.169 106.694 194.471 108.091 197.259 110.381C200.07 112.587 202.121 115.438 203.411 118.936C204.785 122.456 204.92 125.907 203.815 129.289C203.703 125.754 202.98 122.322 201.644 118.992C200.392 115.684 198.66 113.144 196.449 111.372C194.238 109.6 191.362 108.454 187.82 107.935C184.278 107.416 180.744 107.528 177.216 108.27ZM150.931 114.697C152.225 112.265 154.233 110.343 156.955 108.931C159.784 107.458 162.581 106.92 165.348 107.317C168.031 107.691 170.462 108.985 172.642 111.198C174.929 113.35 176.379 115.769 176.994 118.452C175.551 116.171 173.72 114.323 171.501 112.908C169.283 111.492 167.052 110.613 164.81 110.27C162.629 110.033 160.268 110.286 157.729 111.029C155.213 111.689 152.947 112.911 150.931 114.697ZM178.931 119.251C180.361 118.295 182.087 117.733 184.109 117.567C186.214 117.424 187.993 117.82 189.444 118.756C190.872 119.776 191.795 121.331 192.212 123.421C192.735 125.451 192.768 127.302 192.311 128.974C192.16 127.225 191.583 125.72 190.581 124.458C189.662 123.218 188.644 122.176 187.527 121.332C186.41 120.487 185.111 119.818 183.629 119.323C182.147 118.828 180.581 118.804 178.931 119.251ZM140.633 118.35C140.611 117.446 140.813 116.378 141.24 115.147C141.666 113.916 142.324 113.152 143.214 112.856C144.042 112.454 145.049 112.549 146.235 113.143C147.42 113.737 148.279 114.376 148.81 115.06C148.02 114.664 147.222 114.626 146.416 114.945C145.717 115.203 145.017 115.461 144.318 115.719C143.618 115.977 142.907 116.277 142.185 116.618C141.486 116.876 140.968 117.454 140.633 118.35ZM193.473 130.639C195.419 131.081 197.235 132.162 198.921 133.881C200.608 135.599 201.587 137.44 201.859 139.401C202.025 141.423 201.466 143.471 200.18 145.545C198.917 147.536 197.361 148.953 195.514 149.795C196.89 148.375 197.777 146.775 198.173 144.997C198.676 143.158 198.841 141.406 198.667 139.741C198.554 138.183 198.053 136.563 197.165 134.883C196.383 133.142 195.152 131.727 193.473 130.639ZM141.346 127.575C140.427 127.323 139.45 126.787 138.417 125.965C137.384 125.144 136.814 124.269 136.708 123.342C136.625 122.331 137.025 121.362 137.907 120.435C138.896 119.448 139.805 118.753 140.633 118.35C139.987 119.072 139.644 119.832 139.606 120.63C139.651 121.451 139.696 122.272 139.741 123.093C139.893 123.853 139.991 124.644 140.036 125.465C140.165 126.308 140.602 127.012 141.346 127.575ZM115.169 144.947C112.821 142.688 111.485 139.851 111.16 136.438C110.775 132.919 111.256 129.681 112.603 126.725C113.95 123.769 116.053 121.334 118.912 119.42C121.794 117.423 124.862 116.554 128.115 116.815C124.922 117.649 121.991 119.004 119.322 120.88C116.653 122.756 114.808 124.902 113.788 127.319C112.685 129.712 112.276 132.521 112.563 135.744C112.85 138.967 113.718 142.034 115.169 144.947ZM134.679 141.116C135.38 138.882 136.727 136.914 138.719 135.212C140.795 133.534 142.97 132.646 145.242 132.548L145.528 132.491C144.464 131.123 143.739 129.666 143.352 128.123C144.78 130.131 146.531 131.777 148.606 133.063C149.525 133.315 150.441 133.745 151.353 134.353C152.584 134.78 153.849 135.081 155.149 135.256C156.198 135.364 157.281 135.345 158.399 135.201C158.749 133.59 159.491 132.355 160.624 131.497C161.521 130.844 162.601 130.51 163.863 130.496C165.231 130.421 166.531 130.596 167.762 131.023C167.891 130.878 167.967 130.764 167.99 130.681L167.887 131.057C168.556 131.24 169.191 131.548 169.791 131.982C168.955 131.753 168.168 131.673 167.431 131.741C165.491 134.894 162.681 136.956 159.001 137.927C158.689 138.74 158.514 139.546 158.475 140.344C158.194 139.728 158.073 139.021 158.112 138.223C157.161 138.412 156.287 138.488 155.489 138.449C155.876 139.004 156.169 139.578 156.366 140.171C155.751 139.464 155.071 138.829 154.326 138.266C152.418 138.014 150.606 137.249 148.889 135.971C147.696 135.735 146.51 135.635 145.332 135.672C143.523 135.717 141.641 136.191 139.687 137.094C137.756 137.914 136.087 139.255 134.679 141.116ZM162.492 134.03C162.28 134.151 162.108 134.284 161.979 134.428C163.675 133.814 165.207 132.975 166.576 131.911C165.792 132.146 165.04 132.435 164.317 132.776C163.679 133.141 163.07 133.559 162.492 134.03ZM194.965 151.802C197.078 153.278 198.661 155.373 199.716 158.087C200.771 160.801 200.956 163.412 200.27 165.92C199.607 168.345 198.131 170.457 195.842 172.257C193.553 174.057 191.124 175.055 188.555 175.251C190.912 174.189 192.794 172.726 194.201 170.865C195.715 168.943 196.735 167.02 197.26 165.098C197.809 163.091 197.909 160.917 197.561 158.576C197.319 156.174 196.454 153.916 194.965 151.802ZM122.536 161.381C121.016 159.708 119.991 157.541 119.461 154.88C119.014 152.242 119.297 149.894 120.309 147.834C121.405 145.798 123.143 144.206 125.522 143.06C128.009 141.853 130.373 141.421 132.615 141.765C130.418 142.242 128.494 143.199 126.844 144.634C125.194 146.07 123.961 147.62 123.147 149.284C122.249 150.925 121.682 152.837 121.445 155.018C121.314 157.139 121.678 159.26 122.536 161.381ZM155.541 164.878C155.253 164.62 155.006 164.373 154.801 164.137C154.398 164.296 153.953 164.444 153.467 164.581C153.892 164.338 154.246 164.03 154.527 163.658C153.707 162.715 153.111 161.608 152.739 160.339C152.368 159.069 152.361 157.944 152.719 156.964C153.145 155.733 154.134 154.745 155.685 154.001C155.465 153.492 155.138 153.043 154.705 152.655C155.267 152.899 155.807 153.226 156.324 153.637C157.555 153.075 158.802 152.787 160.064 152.773C158.984 153.106 158.087 153.759 157.372 154.732C158.01 155.356 158.488 156.07 158.807 156.876C159.232 157.622 159.384 158.382 159.262 159.157C159.178 160.122 158.706 161.027 157.846 161.87C157.071 162.736 156.162 163.431 155.12 163.955C155.219 164.251 155.359 164.559 155.541 164.878ZM155.66 158.037C155.37 158.767 155.1 159.592 154.849 160.511C154.704 161.37 154.737 162.233 154.95 163.099C155.383 162.499 155.661 161.811 155.783 161.036C155.989 160.284 156.1 159.55 156.115 158.836C156.207 158.501 156.256 158.156 156.264 157.798C156.295 157.358 156.272 156.947 156.196 156.567C156.082 156.985 155.903 157.475 155.66 158.037ZM122.787 178.7C119.656 178.653 116.779 177.507 114.158 175.263C111.621 173.042 109.859 170.449 108.873 167.484C107.803 164.496 107.63 161.349 108.354 158.043C109.078 154.737 110.702 152.081 113.227 150.076C111.591 152.774 110.476 155.703 109.881 158.865C109.226 161.92 109.292 164.634 110.081 167.006C110.848 169.461 112.427 171.735 114.82 173.827C117.213 175.919 119.869 177.543 122.787 178.7ZM188.006 177.258C188.264 178.945 188.004 180.716 187.228 182.57C186.535 184.447 185.496 185.781 184.113 186.571C182.645 187.337 180.938 187.5 178.993 187.058C177.047 186.616 175.413 185.855 174.091 184.774C175.634 185.376 177.124 185.514 178.561 185.188C180.081 184.884 181.415 184.441 182.564 183.856C183.735 183.188 184.826 182.318 185.837 181.247C186.933 180.199 187.656 178.869 188.006 177.258ZM197.274 180.33C197.713 183.325 197.145 186.225 195.57 189.029C193.995 191.833 191.876 193.994 189.215 195.513C186.577 196.948 183.619 197.577 180.343 197.4C177.128 197.33 174.354 196.302 172.022 194.316C174.879 195.367 177.832 195.905 180.88 195.929C183.905 196.038 186.471 195.526 188.577 194.395C190.706 193.18 192.524 191.296 194.031 188.743C195.644 186.129 196.725 183.325 197.274 180.33ZM135.354 175.128C133.78 175.955 131.933 176.304 129.812 176.173C127.692 176.043 125.993 175.354 124.717 174.107C123.441 172.859 122.689 171.171 122.462 169.043C122.236 166.914 122.476 165.048 123.184 163.445C123.061 165.208 123.384 166.824 124.15 168.291C124.94 169.675 125.87 170.873 126.942 171.885C127.929 172.873 129.13 173.741 130.543 174.486C131.979 175.149 133.583 175.362 135.354 175.128ZM159.275 174.39C158.575 176.624 157.217 178.634 155.201 180.419C153.292 182.143 151.19 183.096 148.894 183.277C146.599 183.458 144.311 182.788 142.032 181.266C139.813 179.851 138.233 178.071 137.292 175.927C138.895 177.623 140.73 178.799 142.797 179.454C144.864 180.109 146.814 180.372 148.645 180.244C150.477 180.116 152.329 179.589 154.199 178.662C156.176 177.675 157.868 176.251 159.275 174.39ZM172.21 184.26C170.91 185.073 169.302 185.532 167.387 185.637C165.555 185.765 164.039 185.395 162.838 184.528C161.66 183.577 160.913 182.205 160.594 180.411C160.299 178.533 160.346 176.884 160.734 175.462C160.87 176.937 161.325 178.23 162.1 179.34C162.898 180.367 163.783 181.237 164.755 181.952C165.705 182.751 166.784 183.406 167.992 183.916C169.284 184.448 170.69 184.563 172.21 184.26ZM240.87 126.885C242.719 124.066 245.357 122.137 248.786 121.098C252.215 120.058 255.529 119.931 258.729 120.716C262.012 121.524 264.888 123.164 267.357 125.635C269.909 128.13 271.401 131.054 271.832 134.406C270.322 131.387 268.351 128.737 265.92 126.455C263.512 124.09 261 122.595 258.386 121.97C255.855 121.368 252.97 121.568 249.732 122.569C246.516 123.487 243.562 124.925 240.87 126.885ZM224.38 132.485C225.293 131.117 226.673 130.012 228.52 129.169C230.391 128.243 232.12 127.997 233.709 128.431C235.381 128.888 236.744 129.98 237.8 131.706C238.962 133.371 239.63 135.036 239.804 136.701C239.143 135.173 238.16 134.006 236.853 133.199C235.546 132.393 234.223 131.806 232.886 131.441C231.632 131.098 230.237 130.941 228.702 130.971C227.166 131 225.726 131.505 224.38 132.485ZM260.142 141.183C261.45 140.013 263.119 139.167 265.148 138.643C267.201 138.037 269.018 138.129 270.598 138.92C272.179 139.712 273.379 141.073 274.199 143.004C275.102 144.958 275.493 146.817 275.37 148.581C274.862 146.824 274.03 145.429 272.875 144.395C271.743 143.277 270.543 142.409 269.274 141.793C268.005 141.176 266.553 140.735 264.919 140.468C263.369 140.223 261.776 140.462 260.142 141.183ZM240.897 138.617C241.62 137.288 242.791 136.125 244.411 135.131C246.053 134.052 247.638 133.677 249.166 134.005C250.633 134.226 251.97 135.086 253.178 136.584C254.408 137.998 255.122 139.496 255.319 141.077C254.613 139.716 253.614 138.769 252.322 138.237C251.053 137.62 249.822 137.194 248.628 136.957C247.412 136.805 246.109 136.808 244.718 136.966C243.349 137.042 242.076 137.592 240.897 138.617ZM212.789 143.332C211.999 141.948 211.552 140.298 211.446 138.383C211.425 136.49 211.943 134.925 213 133.686C213.951 132.509 215.354 131.814 217.208 131.602C219.17 131.33 220.891 131.441 222.373 131.936C220.754 131.943 219.389 132.333 218.279 133.108C217.169 133.883 216.215 134.745 215.416 135.694C214.594 136.728 213.875 137.879 213.259 139.148C212.665 140.333 212.508 141.728 212.789 143.332ZM276.691 150.155C278.911 150.582 280.989 151.689 282.926 153.477C284.947 155.287 286.143 157.321 286.514 159.579C286.885 161.836 286.435 164.139 285.164 166.487C283.894 168.835 282.247 170.586 280.224 171.741C281.692 169.986 282.659 168.093 283.124 166.064C283.612 163.951 283.708 161.956 283.412 160.078C283.094 158.284 282.377 156.471 281.261 154.639C280.145 152.806 278.621 151.311 276.691 150.155ZM193.717 176.123C190.693 174.039 188.665 171.103 187.633 167.317C186.602 163.531 186.578 159.841 187.56 156.246C188.543 152.652 190.441 149.487 193.255 146.752C196.07 144.017 199.309 142.522 202.973 142.266C199.597 143.769 196.608 145.827 194.007 148.44C191.322 151.03 189.591 153.747 188.814 156.589C188.037 159.432 188.145 162.651 189.139 166.247C190.049 169.82 191.575 173.112 193.717 176.123ZM205.693 169.29C203.603 167.73 201.989 165.582 200.851 162.845C199.819 160.047 199.645 157.394 200.331 154.886C201.017 152.378 202.504 150.224 204.793 148.424C207.189 146.563 209.671 145.534 212.24 145.338C209.883 146.401 207.948 147.894 206.434 149.816C204.92 151.738 203.889 153.702 203.341 155.709C202.792 157.715 202.681 159.931 203.006 162.356C203.331 164.781 204.227 167.092 205.693 169.29ZM249.344 179.201C247.193 178.524 245.267 177.188 243.566 175.196C241.948 173.226 241.132 171.116 241.118 168.866L241.095 168.456C238.883 168.66 236.873 168.29 235.065 167.346C236.364 167.522 237.554 167.443 238.634 167.109C239.736 166.692 240.736 166.156 241.633 165.503C242.509 162.957 244.068 160.868 246.312 159.235C246.495 158.566 246.582 157.916 246.575 157.285C246.795 157.795 246.92 158.323 246.95 158.871C247.483 158.567 248.004 158.305 248.513 158.085C248.019 158.579 247.566 159.084 247.155 159.6C247.23 160.969 247.085 162.322 246.719 163.659C246.437 165.02 245.825 166.11 244.882 166.93C244.646 167.135 244.422 167.299 244.209 167.42C244.178 167.861 244.189 168.313 244.242 168.777C244.287 170.586 244.677 172.445 245.413 174.353C246.256 176.201 247.566 177.817 249.344 179.201ZM289.766 173.81C292.334 175.59 294.077 178.088 294.995 181.304C295.913 184.52 295.961 187.633 295.138 190.642C294.315 193.652 292.691 196.307 290.264 198.609C287.922 200.934 285.192 202.209 282.076 202.435C284.858 201.129 287.356 199.386 289.57 197.206C291.806 194.943 293.244 192.64 293.884 190.299C294.547 187.875 294.48 185.161 293.683 182.158C292.887 179.156 291.581 176.373 289.766 173.81ZM279.801 173.781C281.602 175.082 282.98 176.941 283.937 179.359C284.999 181.716 285.234 183.981 284.639 186.155C284.045 188.329 282.68 190.201 280.543 191.774C278.512 193.285 276.391 194.143 274.179 194.347C276.24 193.382 277.856 192.072 279.027 190.416C280.282 188.782 281.15 187.088 281.63 185.332C282.11 183.577 282.225 181.676 281.975 179.632C281.809 177.61 281.085 175.659 279.801 173.781ZM234.516 169.353C236.028 170.395 237.266 171.946 238.23 174.007C239.194 176.067 239.425 178.017 238.922 179.856C238.419 181.695 237.229 183.257 235.351 184.54C233.472 185.824 231.617 186.53 229.785 186.658C231.526 185.876 232.865 184.759 233.801 183.308C234.82 181.88 235.524 180.455 235.913 179.034C236.324 177.529 236.443 175.944 236.269 174.279C236.202 172.554 235.617 170.912 234.516 169.353ZM243.79 199.516C242.134 198.344 240.835 196.686 239.894 194.542C238.953 192.398 238.745 190.365 239.271 188.442C239.796 186.519 241.01 184.874 242.911 183.507C244.812 182.14 246.773 181.374 248.795 181.208C246.948 182.05 245.503 183.228 244.461 184.74C243.418 186.252 242.691 187.76 242.28 189.265C241.869 190.77 241.727 192.438 241.855 194.27C241.983 196.102 242.628 197.851 243.79 199.516ZM201.065 186.218C199.697 185.305 198.58 183.967 197.715 182.203C196.872 180.355 196.668 178.637 197.102 177.049C197.514 175.544 198.541 174.253 200.183 173.174C201.848 172.012 203.502 171.386 205.144 171.296C203.699 171.979 202.585 172.932 201.802 174.156C201.018 175.379 200.455 176.618 200.112 177.872C199.769 179.126 199.612 180.52 199.642 182.056C199.694 183.508 200.168 184.895 201.065 186.218ZM273.631 196.353C274.633 197.615 275.313 199.239 275.669 201.223C276.047 203.123 275.811 204.811 274.959 206.285C274.129 207.675 272.772 208.697 270.886 209.349C269.024 209.918 267.275 210.069 265.641 209.802C267.245 209.522 268.583 208.899 269.656 207.935C270.751 206.886 271.637 205.781 272.314 204.618C272.969 203.539 273.49 202.289 273.879 200.868C274.267 199.447 274.185 197.942 273.631 196.353ZM229.237 188.664C229.517 190.268 229.311 192.009 228.618 193.886C228.032 195.702 227.046 197.005 225.663 197.795C224.279 198.584 222.602 198.8 220.634 198.441C218.772 198.022 217.222 197.284 215.983 196.227C217.442 196.805 218.849 196.92 220.202 196.571C221.662 196.162 222.965 195.665 224.114 195.08C225.201 194.389 226.239 193.55 227.228 192.562C228.323 191.514 228.993 190.214 229.237 188.664ZM213.977 195.678C212.775 196.787 211.182 197.52 209.198 197.876C207.275 198.338 205.618 198.155 204.228 197.326C202.814 196.58 201.77 195.306 201.094 193.504C200.442 191.619 200.249 189.859 200.516 188.225C200.796 189.829 201.43 191.125 202.418 192.114C203.489 193.125 204.606 193.97 205.768 194.647C206.87 195.218 208.132 195.697 209.553 196.086C210.997 196.391 212.472 196.255 213.977 195.678ZM263.635 209.254C262.167 211.009 260.163 212.258 257.624 213.001C255.062 213.828 252.728 213.819 250.623 212.974C248.412 212.19 246.626 210.669 245.267 208.41C243.908 206.152 243.233 203.856 243.242 201.522C243.993 203.704 245.162 205.506 246.75 206.929C248.338 208.351 249.987 209.386 251.697 210.033C253.407 210.68 255.303 210.974 257.386 210.914C259.529 210.961 261.612 210.408 263.635 209.254ZM241.627 213.345C240.303 215.229 238.425 216.513 235.992 217.195C233.62 217.984 231.306 218.07 229.048 217.453C226.791 216.836 224.8 215.573 223.076 213.664C221.413 211.862 220.49 209.813 220.309 207.517C221.273 209.578 222.568 211.414 224.194 213.026C225.903 214.662 227.636 215.719 229.391 216.199C231.147 216.679 233.134 216.639 235.354 216.078C237.658 215.539 239.749 214.628 241.627 213.345Z" fill="#176BFF" fill-opacity="0.1"/>
</g>
<defs>
<clipPath id="clip0_54901_1151">
<rect width="512" height="226" fill="white"/>
</clipPath>
</defs>
</svg>
